<svg width="14" height="14" viewBox="0 0 14 14" fill="none" xmlns="http://www.w3.org/2000/svg">
<rect width="14" height="14" rx="2" fill="#0D0C22"/>
<path fill-rule="evenodd" clip-rule="evenodd" d="M9.82663 4.13777C9.61958 3.93136 9.28037 3.94585 9.09169 4.16918L5.98981 7.84049L4.86577 6.6667C4.67179 6.46414 4.34918 6.46071 4.15095 6.65911L3.79771 7.01264C3.60557 7.20494 3.60227 7.51553 3.79029 7.71186L5.6415 9.645C5.78787 9.79786 6.0075 9.83732 6.19165 9.76223C6.29357 9.73913 6.38935 9.68394 6.46249 9.59736L6.74174 9.26686L7.05525 8.95308L7.02953 8.92623L10.2072 5.16517C10.3752 4.96641 10.3626 4.67208 10.1783 4.48838L9.82663 4.13777Z" fill="white"/>
</svg>
