<svg width="73" height="29" viewBox="0 0 73 29" fill="none" xmlns="http://www.w3.org/2000/svg">
<g clip-path="url(#clip0_363_697)">
<path fill-rule="evenodd" clip-rule="evenodd" d="M41.0535 1.45534C41.3071 1.01473 41.8973 0 41.8973 0C41.8973 0 40.7299 0.280387 39.6063 0C39.6063 0 39.3134 0.60973 38.8237 1.4954C37.8313 1.5043 36.8257 1.4954 35.7939 1.48204C35.313 0.600829 35.0157 0 35.0157 0C33.8921 0.280387 32.7291 0 32.7291 0C32.7291 0 33.2887 0.970227 33.5511 1.42419C32.3181 1.38413 31.0328 1.33517 29.6556 1.26842C29.6556 1.26842 29.7824 1.93155 29.6556 2.72821V2.73711C36.0344 2.55018 39.0861 2.57244 44.9665 2.73711C44.8659 2.33656 44.8266 1.85144 44.9752 1.26842C43.6286 1.35743 42.3389 1.41974 41.0535 1.45534Z" fill="#00461A"/>
<path fill-rule="evenodd" clip-rule="evenodd" d="M32.4231 8.50966C33.0526 8.46515 35.1643 8.33163 36.8913 8.51856C36.782 6.82289 36.782 5.02485 36.8913 3.67188C34.6572 3.87215 32.4406 3.77869 30.084 3.67188C30.3988 9.35527 30.0184 16.7032 30.0184 16.7032C31.0022 16.6142 31.7716 16.6142 32.6198 16.4851C32.6198 16.4851 32.3531 12.9691 32.4187 8.50966M32.4362 4.62875C32.4362 4.62875 33.6604 4.70441 34.6878 4.62875V5.86601H32.4362V4.62875ZM32.4362 6.46684H34.6878V7.7041C33.6604 7.63289 32.4362 7.7041 32.4362 7.7041V6.46684Z" fill="#00461A"/>
<path fill-rule="evenodd" clip-rule="evenodd" d="M37.7788 3.66705C37.8838 5.02448 37.8838 6.82251 37.7788 8.51373C39.5102 8.32681 41.6175 8.46033 42.2383 8.50483C42.3126 12.9599 42.0678 16.0219 42.0678 16.0219C42.8154 15.9551 43.7948 15.8883 44.5686 16.0219C44.5686 16.0219 44.2582 9.34599 44.5861 3.6626C42.2252 3.76941 40.0086 3.86287 37.7788 3.6626M42.2296 7.69928C42.2296 7.69928 41.0098 7.62807 39.9736 7.69928V6.46201H42.2296V7.69928ZM42.2296 5.86119H39.9736V4.62392C41.0054 4.69958 42.2296 4.62392 42.2296 4.62392V5.86119Z" fill="#00461A"/>
<path fill-rule="evenodd" clip-rule="evenodd" d="M41.0753 14.1486C40.9617 13.3564 41.0404 11.2513 41.0753 10.9798C41.0753 10.9798 39.8424 11.0376 38.2685 11.0688C38.2772 10.7928 38.2816 10.5392 38.286 10.3077C39.9561 10.3211 41.0666 10.3611 41.0666 10.3611C41.0666 10.3611 40.9835 9.93389 41.0666 9.43987C41.0666 9.43987 39.9386 9.51553 38.3078 9.54224C38.321 9.16394 38.3341 8.94141 38.3341 8.94141C38.3341 8.94141 37.2979 9.11943 36.2923 8.94141C36.2923 8.94141 36.3054 9.16839 36.3229 9.55114C35.4354 9.53778 34.4954 9.50663 33.5554 9.44432C33.5554 9.44432 33.656 9.94724 33.5554 10.3656C34.526 10.3344 35.4747 10.3166 36.3492 10.3077C36.3579 10.5392 36.3623 10.7973 36.371 11.0732C34.7971 11.0421 33.5685 10.9842 33.5685 10.9842C33.6166 11.2557 33.6866 13.3653 33.5685 14.153C33.5685 14.153 33.9489 14.1352 34.5566 14.113C34.3599 14.5269 33.9227 15.3369 33.1969 16.1157C33.7915 16.0401 34.303 16.0401 34.8452 16.2226C35.5491 15.5861 35.9994 14.6248 36.3317 13.6857C35.8376 12.8624 35.6278 12.2437 35.4441 11.6474C35.7108 11.6563 36.0344 11.6652 36.3841 11.6741C36.4016 13.0003 36.3929 14.6426 36.2967 16.2181C36.2967 16.2181 37.346 16.0534 38.3341 16.1514C38.2423 14.7939 38.2379 13.0893 38.2597 11.6785C38.627 11.6696 38.9593 11.6607 39.2347 11.6518C39.0598 12.2482 38.8456 12.8668 38.3472 13.6946C38.6838 14.6426 39.1254 15.595 39.838 16.2315C40.3802 16.0579 40.8917 16.0579 41.4819 16.1202C40.7518 15.3413 40.3146 14.5269 40.1135 14.1174C40.7037 14.1352 41.071 14.1575 41.071 14.1575M35.4791 13.432C35.0157 13.4454 34.6397 13.4632 34.6397 13.4632C34.714 12.9558 34.6659 11.7987 34.6397 11.6251C34.6397 11.6251 34.6834 11.6251 34.7577 11.6296C34.9414 12.1948 35.1818 12.8713 35.4747 13.432M39.9954 11.6251C39.9692 11.8031 39.9167 12.9558 39.9954 13.4632C39.9954 13.4632 39.6369 13.4498 39.191 13.432C39.4795 12.8668 39.7244 12.1948 39.9036 11.6296C39.9605 11.6296 39.9911 11.6251 39.9911 11.6251" fill="#00461A"/>
<path fill-rule="evenodd" clip-rule="evenodd" d="M46.8464 1.32644C46.8464 1.32644 47.0694 2.35007 46.8464 3.52948C47.1612 3.54728 47.511 3.55618 47.887 3.56953C48.1056 6.61818 47.9744 15.4526 47.8258 16.2225C48.3329 16.2893 52.4733 16.5519 54.0559 15.3814C53.8767 14.647 53.9248 13.8771 54.0122 13.116C52.329 14.2732 50.6151 13.9839 50.3266 13.9349C50.2479 13.3519 50.2173 11.4382 50.2042 9.25293C51.6907 9.19952 52.976 9.16837 54.2789 9.15946C54.7904 11.6696 55.7654 14.3934 57.6672 16.3472C58.6291 16.2403 60.1374 16.2314 60.8239 16.3472C60.6796 15.328 60.8282 14.6826 60.8282 14.6826C58.7078 14.7316 57.3612 12.1948 56.6486 9.16392C57.9558 9.18172 59.3942 9.21287 61.1518 9.27073C61.0468 8.83012 61.0468 8.30495 61.1649 7.74863C59.0882 7.82874 57.6978 7.8777 56.395 7.89105C56.1283 6.3645 56.0102 4.79789 56.0277 3.42266C58.428 3.27134 60.4741 3.02656 61.1955 2.66606C60.9987 1.69139 61.2611 0.529785 61.2611 0.529785C60.085 1.39765 53.199 1.98513 46.8464 1.33089M54.0559 7.8866C52.9979 7.8688 51.7956 7.83319 50.1954 7.78424C50.1954 6.29774 50.1954 4.80234 50.1954 3.60069C51.3147 3.60069 52.5213 3.57843 53.7149 3.53393C53.7324 4.4908 53.7892 6.07966 54.0559 7.8866Z" fill="#00461A"/>
<path fill-rule="evenodd" clip-rule="evenodd" d="M17.5581 1.82479L18.5375 0.151367C18.5375 0.151367 17.3745 0.427303 16.2509 0.151367C16.2509 0.151367 14.5327 3.39139 12.7489 5.76355C13.5577 5.58553 14.572 5.7413 14.572 5.7413C14.572 5.7413 14.795 11.8475 14.572 18.0739C18.7429 17.2461 22.8395 17.3128 27.2422 17.0502C27.2422 17.0502 26.9012 9.12819 27.2422 1.82479C27.2422 1.82479 20.7016 2.17193 17.5537 1.82479M24.807 14.9184C24.807 14.9184 20.2775 14.9852 17.0072 15.3902V10.0628H24.807V14.914V14.9184ZM24.807 8.62083H17.0072V3.72519C17.0072 3.72519 21.3006 3.97887 24.807 3.72519V8.62083Z" fill="#00461A"/>
<path d="M63.5301 0.591797C64.2646 0.591797 64.8898 1.21043 64.8898 2.02934C64.8898 2.84824 64.2646 3.48913 63.5301 3.48913C62.7956 3.48913 62.1573 2.86159 62.1573 2.02934C62.1573 1.19708 62.7781 0.591797 63.5301 0.591797ZM63.5301 3.2755C64.1553 3.2755 64.6406 2.74143 64.6406 2.02934C64.6406 1.31724 64.1553 0.800974 63.5301 0.800974C62.9049 0.800974 62.4065 1.33504 62.4065 2.02934C62.4065 2.72363 62.8918 3.2755 63.5301 3.2755ZM62.9967 1.19263H63.6132C63.9892 1.19263 64.1685 1.3484 64.1685 1.67329C64.1685 1.98038 63.9848 2.10945 63.7487 2.13615L64.2034 2.88385H63.9411L63.5083 2.15395H63.246V2.88385H62.9967V1.19263ZM63.246 1.94477H63.5039C63.7225 1.94477 63.9236 1.93142 63.9236 1.66439C63.9236 1.44186 63.74 1.40625 63.5739 1.40625H63.246V1.94477Z" fill="#00461A"/>
<path d="M37.0837 18.1674C26.1142 18.3633 7.96149 21.9237 7.96149 21.9237C7.96149 21.9237 6.9909 19.5516 6.11649 19.2578C5.23771 18.9596 0 20.5396 0 20.5396C1.45589 21.7279 3.20034 23.704 3.49326 27.3579L6.79415 25.5777C6.79415 25.5777 7.86093 28.6397 8.73534 28.9378C9.60975 29.236 10.6765 28.3459 17.3745 26.8594C24.0725 25.3774 46.5885 19.6495 72.9956 22.2175L69.9833 20.1435C64.4658 18.8261 51.4371 18.1318 40.9092 18.1318C39.5888 18.1318 38.3035 18.1407 37.0793 18.163" fill="url(#paint0_linear_363_697)"/>
</g>
<defs>
<linearGradient id="paint0_linear_363_697" x1="0" y1="23.5635" x2="72.9956" y2="23.5635" gradientUnits="userSpaceOnUse">
<stop stop-color="#8E6616"/>
<stop offset="0.510904" stop-color="#F5DF92"/>
<stop offset="1" stop-color="#715627"/>
</linearGradient>
<clipPath id="clip0_363_697">
<rect width="73" height="29" fill="white"/>
</clipPath>
</defs>
</svg>
