<svg width="381" height="937" viewBox="0 0 381 937" fill="none" xmlns="http://www.w3.org/2000/svg">
<g clip-path="url(#clip0_16_2)">
<path d="M365.315 936.948C359.579 935.965 354.392 934.557 350.24 932.476C343.966 929.339 337.496 926.357 331.667 920.238C329.886 918.364 327.236 914.068 325.579 911.303C342.527 909.626 340.136 902.358 345.426 904.615C353.367 908 364.497 910.361 374.602 911.945V936.948H365.304H365.315Z" fill="#FFF2F2"/>
<path d="M178.035 936.948C178.035 936.948 178.055 936.855 178.076 936.824C180.343 934.909 182.714 932.6 185.199 929.815C185.251 929.815 185.303 929.825 185.344 929.836C186.762 930.094 188.139 930.219 189.475 930.219C190.583 930.219 191.66 930.126 192.685 929.96C192.374 932.051 192.198 934.277 192.374 936.172C192.395 936.42 192.415 936.679 192.426 936.959H178.045L178.035 936.948Z" fill="#FFF2F2"/>
<path d="M146.478 936.948C146.085 936.751 145.712 936.565 145.391 936.389C144.356 935.851 143.662 935.488 142.885 935.323C143.072 933.387 142.927 930.55 140.939 927.071C139.448 924.452 139.955 922.95 141.198 921.542C142.005 921.014 144.997 920.517 146.623 920.248C149.253 919.813 151.53 919.43 153.197 918.509C154.212 917.94 155.899 917.277 157.463 916.718C158.488 919.068 159.523 920.569 159.544 920.6C163.758 926.626 170.125 928.634 175.612 929.318C171.429 933.273 167.754 935.581 164.565 936.958H146.478V936.948Z" fill="#FFF2F2"/>
<path d="M40.005 468.432C40.8022 472.977 44.7571 476.435 49.53 476.435C49.9545 476.435 50.3686 476.394 50.7724 476.342C57.2535 482.658 64.273 489.822 70.5264 496.831L55.9594 493.249C55.9801 493.021 55.9904 492.794 55.9904 492.555C55.9904 487.213 51.6628 482.875 46.3101 482.875C42.8521 482.875 39.829 484.687 38.1207 487.41C32.1676 480.939 25.5311 474.209 17.8594 468.412H39.9946L40.005 468.432Z" fill="#FFF2F2"/>
<path d="M192.063 468.432C193.409 474.406 194.631 480.09 194.786 485.857C193.658 489.843 194.838 494.998 196.101 500.444C196.722 503.146 197.375 505.942 197.509 507.909C197.685 510.518 196.432 514.007 195.231 517.041C193.378 511.357 192.332 507.557 192.312 507.474L187.321 489.201L185.158 497.131C183.843 495.361 181.959 494.067 179.795 493.508C175.022 485.297 171.44 477.129 171.688 468.432H192.074H192.063Z" fill="#FFF2F2"/>
<path d="M258.003 468.432C257.962 469.602 257.641 470.575 257.165 471.041C254.235 473.961 250.715 476.383 246.998 478.951C245.145 480.235 243.25 481.55 241.407 482.937C240.237 481.291 239.14 480.038 238.405 479.344C236.448 477.501 234.212 477.232 232.741 477.067C232.41 477.025 231.913 476.973 231.706 476.911C228.082 473.526 224.428 472.625 220.845 474.209C220.535 474.344 219.903 474.54 218.671 474.758C219.624 472.666 220.721 470.523 221.984 468.442H258.014L258.003 468.432Z" fill="#FFF2F2"/>
<path d="M367.458 492.338C367.737 494.957 369.042 497.224 370.937 498.777C369.146 502.536 367.147 507.133 365.17 512.454C363.172 510.011 360.024 508.592 356.649 508.955C351.338 509.524 347.486 514.297 348.056 519.608C348.19 520.82 348.543 521.948 349.071 522.973L337.175 533.316C336.543 529.558 335.984 525.768 335.487 521.989C339.276 515.974 343.842 509.876 349.826 504.151C355.003 499.202 361.443 494.015 367.593 489.377C367.406 490.319 367.344 491.313 367.458 492.327V492.338Z" fill="#FFF2F2"/>
<path d="M360.18 527.922C356.846 540.098 354.299 554.437 354.102 570.226C354.061 573.58 353.729 577.152 353.17 580.827C346.306 571.292 341.637 556.487 338.469 540.429L353.543 527.322C355.096 528.057 356.866 528.399 358.709 528.202C359.217 528.15 359.703 528.047 360.18 527.922Z" fill="#FFF2F2"/>
<path d="M336.76 560.669L337.04 560.286C340.664 571.985 345.426 582.111 351.69 588.799C350.458 594.421 348.843 600.136 347.083 605.623C344.888 604.174 342.91 602.745 341.295 601.399C329.793 591.76 322.432 580.144 318.27 573.611C314.108 567.078 307.657 561.715 308.113 558.743C308.537 556.021 314.501 557.346 320.589 548.721L336.75 560.68L336.76 560.669Z" fill="#FFF2F2"/>
<path d="M374.602 641.621C374.467 641.249 374.332 640.876 374.208 640.524C373.028 637.232 372.107 634.623 369.591 633.287C368.141 632.511 366.443 632.366 364.818 632.873C363.182 633.38 361.815 634.467 360.687 635.751C356.608 634.757 348.998 634.757 344.008 635.834C343.77 635.389 343.438 634.788 343.035 634.032C345.478 628.359 348.563 620.749 351.441 612.332C358.751 615.925 368.359 620.273 374.602 622.799V641.632V641.621Z" fill="#FFF2F2"/>
<path d="M374.602 834.192C367.251 835.662 345.975 839.648 322.68 841.47C307.564 842.651 292.687 846.926 281.557 850.912C283.348 848.894 285.077 846.813 286.734 844.68C302.802 832.359 318.176 825.485 331.387 824.75C331.967 824.719 332.598 824.698 333.251 824.698C342.227 824.698 356.121 827.638 374.602 833.405V834.182V834.192Z" fill="#FFF2F2"/>
<path d="M366.764 842.382C364.445 843.748 362.095 845.063 359.714 846.285C343.811 854.423 327.608 858.812 311.561 859.32C310.815 859.34 310.049 859.351 309.283 859.351C301.984 859.351 294.84 858.305 287.272 857.208C286.423 857.083 285.564 856.959 284.715 856.845C295.358 853.087 309.304 849.143 323.198 848.055C340.312 846.72 356.359 844.225 366.754 842.382H366.764Z" fill="#FFF2F2"/>
<path d="M277.633 868.7C279.621 873.959 278.513 879.798 278.596 885.689C277.188 884.105 275.78 882.521 274.32 880.875C272.819 879.177 270.065 879.529 269.05 881.558C265.592 888.464 265.396 895.494 266.441 902.658C263.418 898.714 260.219 895.1 257.165 892.74C251.657 888.474 244.482 885.472 235.744 883.743C248.064 878.587 259.391 871.536 269.361 862.954C270.054 862.643 270.841 862.301 271.721 861.918C275.821 862.27 279.88 862.809 283.938 863.399C283.276 863.761 282.582 864.175 281.878 864.672C280.988 865.293 280.014 865.78 279.114 866.194C276.97 867.157 272.726 867.374 272.726 867.374L277.633 868.7Z" fill="#FFF2F2"/>
<path d="M155.485 909.109C151.323 909.347 144.832 908.829 138.506 907.317C137.253 907.017 136.073 906.593 134.955 906.106C135.98 904.698 137.036 903.311 138.123 901.954C138.133 901.954 138.175 901.954 138.175 901.954C138.34 901.944 138.496 901.913 138.661 901.882C138.713 901.872 139.748 901.644 141.498 901.281C146.271 902.69 151.158 903.808 155.951 903.777C155.858 904.139 155.754 904.501 155.692 904.874C155.423 906.313 155.392 907.732 155.485 909.109Z" fill="#FFF2F2"/>
<path d="M83.7682 890.793C81.5733 890.793 79.368 890.845 77.1421 890.969C61.4673 891.839 45.4715 895.214 29.7966 900.96C30.6456 899.614 31.184 898.051 31.2771 896.363C46.2273 892.015 58.2888 885.202 62.9167 882.376C74.7401 883.608 84.5654 884.364 88.893 884.674L89.0069 884.809L89.1415 884.695C89.2968 884.705 89.4418 884.716 89.5764 884.726C100.83 888.402 113.192 890.949 126.62 892.367C125.989 892.564 125.399 892.781 124.829 893.019C111.008 892.895 97.6312 890.783 83.7785 890.783L83.7682 890.793Z" fill="#FFF2F2"/>
<path d="M101.524 898.921C90.0009 900.567 76.9144 902.741 64.1695 905.506C47.7699 909.067 32.0019 911.221 20.7997 912.453C21.9903 911.925 23.1706 911.397 24.3716 910.889C41.91 903.456 59.8004 899.19 77.5459 898.207C79.5544 898.093 81.594 898.041 83.7682 898.041C89.6903 898.041 95.4985 898.445 101.524 898.921Z" fill="#FFF2F2"/>
<path d="M19.4952 838.199C14.1529 838.054 9.70101 842.268 9.55606 847.61C9.41111 852.952 13.6249 857.404 18.9672 857.549C19.5987 857.57 20.2199 857.518 20.8204 857.415L33.2443 872.292C23.5433 870.76 14.4324 868.948 7.55788 866.846C7.27834 862.529 4.15166 858.947 0 858.036V825.237C1.30451 824.677 2.46408 823.839 3.39587 822.793L23.9264 831.562C28.9891 841.688 37.1164 853.366 50.203 863.906C56.3114 868.824 63.0307 873.141 70.3504 876.848C67.5654 876.578 64.6043 876.278 61.5191 875.947L61.4984 875.916C61.4984 875.916 61.4673 875.937 61.457 875.947C55.4107 875.295 48.9295 874.528 42.4587 873.648L26.3698 854.381C27.8813 852.725 28.8338 850.55 28.896 848.138C29.0409 842.796 24.8271 838.344 19.4848 838.199H19.4952Z" fill="#FFF2F2"/>
<path d="M7.90989 711.516C8.52073 718.681 12.0512 739.129 12.0512 739.129C12.0512 739.129 7.60965 729.635 0 719.033V663.094C11.7199 660.009 24.2059 659.512 38.8558 661.521C41.1749 661.842 43.5044 662.162 45.8235 662.483C52.1287 663.363 58.5684 664.254 65.0392 665.03C54.8826 667.091 45.3059 670.559 36.9301 675.28C22.9428 683.169 17.1243 696.442 13.2832 708.39L12.8277 709.777C12.5274 710.688 12.2168 711.641 11.9166 712.604C10.0841 702.054 9.39041 692.777 8.32402 692.539C6.57432 692.156 6.98845 700.708 7.90989 711.506V711.516Z" fill="#FFF2F2"/>
<path d="M61.5087 626.309C61.5087 626.309 61.4362 626.309 61.3948 626.309C61.2706 626.34 61.3534 626.485 61.488 626.485C61.5191 626.485 61.5398 626.495 61.5708 626.495C62.4716 629.239 63.0824 631.972 63.6622 634.706C52.8741 626.651 30.8113 605.085 23.6779 591.791C17.3624 580.03 14.2668 561.001 19.578 553.122C25.5518 544.259 28.4093 541.05 29.7553 539.942C32.3539 541.775 37.7273 548.069 39.4977 551.911C41.9825 557.325 51.8284 573.652 58.206 580.91C63.6104 587.039 69.0045 600.405 69.0562 600.54C69.1184 600.695 69.2012 600.83 69.284 600.975C69.284 601.099 69.2737 601.233 69.2737 601.358C69.2737 601.606 69.2944 601.855 69.3358 602.103C70.8577 610.448 75.5788 616.546 80.1342 622.437C82.443 625.419 84.6276 628.245 86.3048 631.237C87.9199 634.54 87.6093 638.785 87.278 643.268C87.1227 645.359 86.957 647.606 87.0399 649.852C83.7268 644.759 79.6062 639.82 74.7402 635.171C70.8681 631.475 66.5508 627.966 61.8193 624.756C61.4673 624.518 60.9911 624.756 61.0842 625.025C61.2395 625.45 61.3534 625.874 61.4984 626.309H61.5087Z" fill="#FFF2F2"/>
<path d="M167.733 503.893C167.754 504.11 167.795 504.327 167.837 504.545C164.068 507.257 160.217 509.369 156.458 510.767C159.958 502.371 163.364 493.322 166.336 484.843C167.681 488.425 169.39 491.914 171.295 495.341C168.82 497.339 167.381 500.507 167.744 503.903L167.733 503.893Z" fill="#FFF2F2"/>
<path d="M170.86 510.021C172.837 511.812 175.529 512.785 178.387 512.485C179.318 512.382 180.209 512.144 181.037 511.812C179.091 518.19 175.043 530.614 169.648 542.375C167.764 546.496 164.565 552.656 160.382 560.297C158.736 561.094 156.841 561.912 154.843 562.771C153.539 563.33 152.214 563.9 150.878 564.5C152.048 562.864 153.518 561.311 155.061 559.706C159.016 555.544 163.509 550.834 163.509 543.379C163.509 533.989 156.634 528.926 150.019 525.085C151.095 522.911 152.172 520.612 153.249 518.2C159.947 516.72 165.973 513.489 170.87 510.031L170.86 510.021Z" fill="#FFF2F2"/>
<path d="M191.37 536.877C192.653 540.097 194.041 543.4 195.552 546.682C200.004 556.404 211.445 577.038 226.374 602.217C225.629 603.004 224.904 603.894 224.2 604.888C212.76 607.663 201.474 611.121 190.438 615.314C180.799 618.979 171.336 623.203 162.174 628.038C167.164 622.52 171.284 616.225 174.308 609.423C176.202 605.157 177.683 600.716 178.635 596.15C178.708 595.808 178.231 595.622 177.993 595.818C177.631 596.129 177.248 596.409 176.875 596.709C176.854 596.688 176.844 596.657 176.813 596.636C176.72 596.574 176.616 596.699 176.678 596.781C176.689 596.802 176.689 596.823 176.699 596.833C169.39 602.693 160.817 606.865 154.377 613.802C148.673 619.962 144.728 627.696 142.875 635.886C142.74 637.024 142.699 638.267 142.72 639.571C139.728 641.569 136.777 643.63 133.899 645.783C126.072 651.685 118.628 658.104 111.753 665.123C110.707 665.475 109.682 665.858 108.668 666.262C141.187 615.707 171.15 563.951 179.07 546.661C182.217 539.797 184.899 532.829 187.011 526.824C187.56 528.015 188.191 529.175 188.875 530.313C189.216 531.245 189.568 532.187 189.931 533.15C189.744 534.548 190.283 535.946 191.38 536.857L191.37 536.877Z" fill="#FFF2F2"/>
<path d="M205.771 507.351C205.595 504.721 204.901 501.739 204.177 498.581C203.359 495.041 202.116 489.688 202.789 488.011C202.789 488.011 202.789 488 202.789 487.99C204.208 484.511 209.167 484.014 210.14 483.952C217.657 483.455 221.86 482.803 224.179 481.778C224.252 481.747 224.283 481.737 224.283 481.737C224.314 481.737 224.831 481.819 226.094 483.01C228.051 484.853 230.287 485.122 231.768 485.298C232.099 485.34 232.576 485.391 232.793 485.453C233.642 486.385 242.39 496.417 236.8 504.162C232.4 510.26 225.846 512.838 220.576 514.908C217.926 515.954 215.638 516.855 213.867 518.087C210.099 520.727 208.66 523.108 207.604 524.837C207.272 525.386 207.013 525.821 206.744 526.131C205.926 526.784 203.162 528.098 200.139 529.382C200.553 528.016 200.895 526.608 200.998 525.365C201.06 524.734 201.857 522.756 202.437 521.317C204.063 517.259 206.092 512.217 205.761 507.371L205.771 507.351Z" fill="#FFF2F2"/>
<path d="M245.631 491.064C248.24 489.957 250.88 489.346 253.862 488.745C263.615 487.907 273.937 489.677 282.427 493.632C275.076 505.114 259.494 506.594 244.409 508.033C244.316 508.033 244.223 508.054 244.13 508.065C247.795 502.308 247.402 496.21 245.631 491.064Z" fill="#FFF2F2"/>
<path d="M245.196 516.275C257.02 515.146 270.924 513.821 281.091 506.719C276.649 526.11 276.546 542.303 276.546 542.303C276.546 542.303 267.663 539.725 261.43 543.897C253.603 549.136 254.317 553.132 254.317 553.132L248.778 555.607L254.773 555.928C254.773 555.928 259.287 558.94 261.917 560.286C264.547 561.632 270.003 563.299 272.022 564.914C274.04 566.529 282.396 576.976 292.065 581.697C301.735 586.428 309.304 592.226 319.357 606.597C321.075 609.05 322.577 611.276 323.943 613.326C320.91 613.999 317.058 615.138 312.047 616.794C306.394 618.668 300.648 624.321 296.124 631.755C295.865 623.286 294.602 614.921 291.341 605.364C288.349 596.575 279.341 580.693 270.054 576.168C269.661 575.982 269.237 575.816 268.926 575.816C268.698 575.816 268.543 575.899 268.491 576.127C268.408 576.562 265.779 585.724 263.232 596.761C257.32 595.984 251.398 594.856 245.559 595.208C242.018 595.425 238.601 596.129 235.412 597.227C232.017 591.501 228.807 586.025 225.815 580.858C225.846 580.817 225.877 580.786 225.908 580.744C230.412 573.715 235.423 564.397 234.191 554.551C234.077 553.66 233.642 552.832 232.948 552.252C227.016 547.169 220.411 548.121 215.11 548.898C212.739 549.239 210.482 549.571 208.39 549.415C207.8 548.266 207.231 547.158 206.734 546.144C210.078 545.595 213.412 544.964 216.704 544.021C226.157 541.33 235.236 536.909 243.426 530.976C248.116 527.58 252.506 523.719 256.471 519.381C256.771 519.049 256.419 518.542 256.057 518.604C255.498 518.697 254.928 518.759 254.359 518.842C254.359 518.801 254.359 518.77 254.349 518.728C254.297 518.594 254.11 518.656 254.121 518.801C254.121 518.832 254.11 518.853 254.11 518.884C245.082 520.168 235.972 519.681 226.985 521.255C228.942 520.426 231.023 519.453 233.114 518.242C233.383 518.169 233.642 518.087 233.922 518.014C235.495 517.558 237.659 516.937 238.663 516.937C238.819 516.937 238.964 516.937 239.119 516.917C241.086 516.699 243.115 516.502 245.186 516.306L245.196 516.275Z" fill="#FFF2F2"/>
<path d="M326.676 666.169C327.101 672.743 324.357 683.428 323.705 685.871C320.744 690.478 319.926 696.173 319.502 699.092C319.471 699.289 319.46 699.486 319.46 699.683V715.212C319.46 716.31 318.632 717.966 317.824 719.571C317.762 719.695 317.7 719.83 317.648 719.965C316.862 722.056 314.646 724.706 312.492 727.274C311.219 728.796 309.78 730.504 308.496 732.357C307.751 729.893 307.005 727.243 306.394 725.048C305.028 720.172 303.62 715.119 302.16 711.32C298.723 702.333 293.681 669.793 296.186 654.749C298.598 640.224 307.927 626.878 314.656 624.652C323.074 621.857 326.987 621.018 328.809 620.842C328.944 621.06 329.089 621.288 329.223 621.495C329.896 624.725 330.114 631.206 329.348 634.529C328.116 639.872 326.097 657.296 326.676 666.159V666.169Z" fill="#FFF2F2"/>
<path d="M302.564 776.121C300.917 798.339 292.966 818.818 280.501 835.797C281.381 833.54 282.147 831.242 282.768 828.892C283.596 825.744 284.135 822.566 284.487 819.377C285.988 817.11 287.438 814.811 288.783 812.461C290.471 809.51 292.024 806.477 293.453 803.391C294.882 800.306 296.207 797.169 297.304 793.96C299.396 787.996 300.959 781.857 301.963 775.634C302.16 775.8 302.367 775.966 302.584 776.131L302.564 776.121Z" fill="#FFF2F2"/>
<path d="M321.044 592.485C322.639 590.766 335.518 603.915 345.447 609.257C345.571 609.319 345.695 609.392 345.82 609.454C343.625 615.925 341.285 621.961 339.214 627.013C338.8 626.257 338.365 625.491 337.941 624.715C337.609 619.673 336.409 614.61 333.158 613.192C332.485 612.902 331.729 612.705 330.849 612.612C330.517 612.104 330.217 611.659 329.948 611.297C326.314 606.296 319.44 594.204 321.044 592.485Z" fill="#FFF2F2"/>
<path d="M276.691 594.546C279.569 598.946 282.085 603.884 283.493 608.036C288.08 621.495 288.421 632.097 287.438 646.943C287.117 651.851 286.237 656.624 285.17 661.5C283.472 653.518 282.199 644.417 282.416 635.534C282.82 618.689 279.3 603.418 276.681 594.546H276.691Z" fill="#FFF2F2"/>
<path d="M275.863 657.027C270.386 646.136 266.338 635.306 266.772 625.75C266.928 622.24 267.652 615.304 270.344 602.932C272.415 611.369 274.444 622.986 274.144 635.337C273.968 642.719 274.703 650.153 275.873 657.038L275.863 657.027Z" fill="#FFF2F2"/>
<path d="M259.494 636.745C253.013 626.361 246.78 616.184 240.982 606.524C241.479 606.524 241.976 606.524 242.473 606.493C248.975 606.193 255.249 604.899 260.933 602.642C261.306 602.497 261.658 602.331 262.031 602.176C260.281 610.345 258.79 618.917 258.5 625.377C258.334 629.084 258.718 632.894 259.504 636.745H259.494Z" fill="#FFF2F2"/>
<path d="M221.736 573.704C218.091 567.316 214.882 561.539 212.19 556.539C213.536 556.415 214.861 556.228 216.176 556.042C220.928 555.348 224.179 555.006 227.14 556.901C227.358 562.73 224.697 568.662 221.746 573.704H221.736Z" fill="#FFF2F2"/>
<path d="M144.459 577.493C146.934 575.568 150.247 573.88 153.653 572.337C151.831 575.547 149.905 578.901 147.865 582.411C146.985 581.034 146.085 579.678 145.194 578.342C145.039 578.115 144.873 577.907 144.677 577.711C144.604 577.638 144.521 577.566 144.449 577.493H144.459Z" fill="#FFF2F2"/>
<path d="M155.216 543.369C155.216 547.314 152.876 549.975 149.056 553.992C146.644 556.528 144.148 559.148 142.316 562.637C140.753 565.794 139.231 568.59 137.667 571.188C130.907 566.819 123.287 566.674 116.505 566.54C113.896 566.488 111.432 566.436 109.082 566.178C108.067 566.064 107.053 566.333 106.214 566.923C102.663 569.459 98.5216 571.768 94.225 573.963C94.2974 572.928 94.3699 571.913 94.432 570.899C94.7012 566.902 94.9601 563.134 95.4467 559.5C95.5191 559.21 95.5605 558.92 95.5709 558.609C96.306 553.65 97.5277 548.929 99.8882 544.187C103.47 537.023 108.067 529.341 115.035 526.618C117.365 526.028 119.611 525.365 121.775 524.723C126.62 523.294 131.217 521.928 135.98 521.669C136.083 521.979 136.197 522.321 136.28 522.601C136.86 524.506 137.75 527.384 140.483 529.206C140.566 529.258 140.639 529.31 140.721 529.351C141.457 529.775 142.223 530.2 142.989 530.624C150.36 534.724 155.195 537.82 155.195 543.359L155.216 543.369Z" fill="#FFF2F2"/>
<path d="M109.745 574.553C111.96 574.729 114.186 574.771 116.34 574.812C122.634 574.936 128.598 575.05 133.443 578.322C133.94 579.088 134.52 579.74 135.11 580.32C135.348 580.631 135.628 580.92 135.959 581.148C136.021 581.19 136.083 581.21 136.145 581.252C136.425 581.49 136.694 581.718 136.963 581.935C137.512 582.391 138.04 582.815 138.547 583.302C140.183 585.766 141.736 588.126 143.123 590.549C134.53 605.178 124.519 621.712 113.875 638.733C114.041 637.667 114.196 636.58 114.321 635.493C114.849 630.823 114.973 626.009 114.611 621.122C114.579 620.75 114.124 620.605 113.969 620.843C113.731 621.205 113.472 621.547 113.234 621.899C113.213 621.878 113.192 621.847 113.161 621.837C113.058 621.774 113.006 621.919 113.089 622.002C113.109 622.023 113.109 622.044 113.12 622.064C108.326 628.96 102 634.219 98.2524 642.16C97.0307 644.748 96.0782 647.533 95.3742 650.463C95.2603 648.724 95.3638 646.591 95.5605 643.899C95.9436 638.712 96.3784 632.832 93.7073 627.479C93.6762 627.427 93.6555 627.376 93.6245 627.324C91.6367 623.742 89.1312 620.511 86.7189 617.395C82.6604 612.156 78.8297 607.197 77.5873 601.016C77.7115 595.757 80.6518 590.932 85.8802 587.371C87.2883 586.667 88.7274 585.963 90.1768 585.259C90.9533 585.124 91.6574 584.772 92.2268 584.254C98.2731 581.293 104.423 578.218 109.765 574.584L109.745 574.553Z" fill="#FFF2F2"/>
<path d="M126.03 877.5C123.618 876.776 121.216 876.02 118.814 875.233C113.513 873.452 108.264 871.537 103.098 869.373C97.9832 867.271 93.1068 864.745 88.4065 861.877C84.4308 859.444 80.6622 856.701 77.0593 853.729C77.1525 853.222 77.2249 852.704 77.2353 852.176C77.3802 846.834 73.1665 842.382 67.8242 842.237C66.9649 842.216 66.1262 842.32 65.3187 842.506C64.6561 841.782 64.0038 841.067 63.3619 840.322C63.0099 839.908 62.6683 839.473 62.3162 839.059C60.9393 832.277 60.1731 825.423 58.0714 818.725C55.276 809.78 50.8034 801.186 44.9021 793.452C44.2498 792.604 43.5665 791.775 42.8832 790.937C50.8448 791.485 55.2967 787.675 55.2967 787.675C55.2967 787.675 57.6262 787.945 60.1317 788.493C61.2085 788.731 62.3059 788.876 63.1963 788.959C69.7499 827.018 93.4485 859.279 126.02 877.5H126.03Z" fill="#FFF2F2"/>
<path d="M99.9089 843.065C103.926 847.424 108.264 851.513 112.964 855.199C120.398 861.028 128.691 865.852 137.512 869.455C138.351 870.687 139.251 871.878 140.204 873.037C124.664 866.07 110.925 855.779 99.9089 843.054V843.065Z" fill="#FFF2F2"/>
<path d="M67.3065 861.577C67.7931 861.587 68.2694 861.556 68.7456 861.494L80.0825 874.539C70.4643 870.398 61.84 865.293 54.2407 859.185C53.3503 858.471 52.491 857.756 51.6524 857.032L43.8875 831.925C44.5604 831.583 45.192 831.169 45.7717 830.693C48.1426 833.809 50.8345 836.739 53.8059 839.4C55.3692 840.549 57.2121 841.667 59.2517 842.744C59.407 842.941 59.5623 843.158 59.7176 843.355C60.1214 843.862 60.5458 844.359 60.9496 844.866C59.1378 846.575 57.9782 848.966 57.9058 851.658C57.7608 857.001 61.9746 861.452 67.3169 861.597L67.3065 861.577Z" fill="#FFF2F2"/>
<path d="M62.3473 751.801C61.4155 758.572 61.2499 762.351 61.4259 764.577H61.4052C61.3844 765.55 61.3741 766.523 61.3741 767.507C61.3741 772.404 61.664 777.239 62.2127 781.991C61.4466 780.563 60.5665 779.154 59.6037 778.016C56.2699 774.133 48.8881 772.86 48.8881 772.86C48.8881 772.86 57.2742 770.52 59.2413 760.467C61.2084 750.414 56.5702 744.14 53.0397 735.226C50.7413 729.428 49.6024 718.888 49.0951 712.231C57.5537 710.864 66.5921 709.86 74.2328 709.032C71.1269 716.745 68.5282 724.396 66.4783 731.975C64.5733 738.466 63.1859 745.154 62.368 751.791L62.3473 751.801Z" fill="#FFF2F2"/>
<path d="M74.1087 700.728C62.2231 702.022 46.745 703.71 34.8387 706.64C38.3589 704.735 42.1171 703.058 45.9581 701.339C52.1597 698.575 58.5788 695.707 64.3248 691.762C65.8157 690.768 67.0581 689.795 68.1555 688.946C69.3255 688.035 70.3401 687.238 71.1269 686.845C73.9223 685.447 76.5831 683.946 79.1611 682.496C82.8261 680.436 86.3462 678.458 89.9077 676.957C85.4144 684.774 81.4181 692.57 77.929 700.314C76.6866 700.449 75.4235 700.594 74.0983 700.739L74.1087 700.728Z" fill="#FFF2F2"/>
<path d="M72.918 588.975C70.661 584.43 67.6274 579.047 64.4386 575.423C61.8089 572.431 58.3095 567.399 55.1104 562.388C55.5866 558.433 56.7979 552.501 58.5787 549.902C61.136 546.175 68.0726 541.268 70.3089 540.17C71.0647 540.398 73.1975 541.402 78.7261 545.73C83.4162 549.395 86.2944 556.342 87.2055 558.816C86.7085 562.606 86.4497 566.436 86.1908 570.34C86.0148 572.917 85.8388 575.568 85.58 578.249C84.348 578.85 83.1263 579.45 81.9357 580.051C81.7804 580.123 81.6354 580.217 81.4905 580.31C77.8772 582.722 74.9886 585.683 72.9283 588.986L72.918 588.975Z" fill="#FFF2F2"/>
<path d="M85.228 534.589C79.1817 531.38 75.9825 528.243 73.829 528.615C72.5349 528.833 71.8101 530.117 71.5824 531.98C70.8162 531.835 70.1018 531.804 69.3875 531.866C67.5964 532.032 64.2315 533.958 60.846 536.474C58.941 524.878 56.0732 513.013 49.3125 501.759C50.938 501.231 52.3667 500.279 53.4849 499.047L77.4112 504.927C83.8096 512.837 88.4478 519.991 89.1622 524.733C89.9905 530.158 90.4874 535.511 90.6634 540.791C89.3279 538.254 87.5264 535.821 85.2073 534.589H85.228Z" fill="#FFF2F2"/>
<path d="M53.4746 542.955C53.4746 542.955 53.4953 543.017 53.4953 543.038C52.8223 543.783 52.2322 544.508 51.7663 545.191C51.4143 544.674 51.0519 544.135 50.7103 543.566C49.8095 542.085 49.4886 540.346 49.1676 538.669C48.7328 536.329 48.1841 533.409 45.4819 531.97C43.7736 531.059 41.8065 531.132 40.1085 532.136C36.9197 526.939 34.1865 521.648 32.0226 516.399C26.9495 504.11 18.5323 486.934 9.0177 472.284C18.7084 478.806 26.846 487.296 34.0001 495.185C47.6664 509.742 51.1141 526.763 53.4643 542.955H53.4746Z" fill="#FFF2F2"/>
<path d="M24.3716 519.567C25.997 523.501 27.902 527.456 30.0659 531.37C29.4654 531.308 28.8856 531.328 28.3162 531.473C25.9039 532.074 23.388 534.124 19.7333 538.71C12.8173 532.674 7.58894 526.348 3.86177 519.463C2.86785 516.741 1.85323 514.784 0.931793 513.075C0.569429 511.833 0.269185 510.591 0 509.348V473.702C9.54571 487.782 18.7187 505.859 24.3716 519.557V519.567Z" fill="#FFF2F2"/>
<path d="M14.8258 545.398C14.1529 546.372 13.4592 547.386 12.7138 548.484C9.07979 553.867 7.93058 562.626 9.02802 572.099C8.71742 571.965 8.40683 571.841 8.08587 571.716C5.49756 570.681 2.62971 569.698 -0.010376 569.459V529.04C3.8928 534.817 8.80025 540.222 14.8155 545.398H14.8258Z" fill="#FFF2F2"/>
<path d="M11.0055 582.142C12.2893 586.812 14.0907 591.44 16.3788 595.705C18.7704 600.157 22.5286 605.303 26.9184 610.552C25.6864 609.91 24.4129 609.247 23.067 608.533C10.8812 602.093 2.0706 584.524 0.476196 577.887C2.96098 578.488 7.10228 580.144 10.9951 582.142H11.0055Z" fill="#FFF2F2"/>
<path d="M82.6087 671.222C80.0411 672.505 77.5563 673.903 75.1026 675.28C72.6178 676.678 70.0398 678.127 67.4308 679.442C65.8985 680.208 64.5215 681.285 63.0617 682.424C62.0368 683.231 60.9704 684.06 59.6866 684.909C54.5099 688.46 48.4533 691.172 42.583 693.781C36.0811 696.68 29.4758 699.631 23.709 703.814C27.1049 695.407 32.0123 687.559 40.9782 682.507C52.8534 675.808 67.4205 671.884 82.5983 671.211L82.6087 671.222Z" fill="#FFF2F2"/>
<path d="M17.2486 724.634C17.2486 724.634 17.29 724.572 17.321 724.541C17.4142 724.427 17.497 724.313 17.5799 724.189C17.642 724.085 17.7041 723.982 17.7559 723.878C17.7766 723.826 17.8076 723.785 17.8387 723.733C19.7851 719.592 26.8667 717.563 30.273 716.589C30.3454 716.569 30.4179 716.548 30.5007 716.517C35.2632 714.85 41.4545 713.525 48.0599 712.427C47.3041 717.977 45.7511 726.466 42.7176 734.532C37.6134 748.084 30.097 752.443 30.097 752.443C30.097 752.443 23.6572 747.111 17.2382 732.316C16.3892 730.359 15.6438 728.227 14.9812 726.011C15.8716 725.814 16.6791 725.338 17.2693 724.634H17.2486Z" fill="#FFF2F2"/>
<path d="M92.2682 879.094L74.7091 858.885C78.0636 861.732 81.6044 864.362 85.3108 866.764C90.1872 869.953 95.4053 872.665 100.758 874.922C106.038 877.179 111.422 879.208 116.847 881.082C124.063 883.495 131.414 885.513 138.848 887.149C121.62 886.207 106.079 883.515 92.2682 879.094Z" fill="#FFF2F2"/>
<path d="M139.489 847.703C135.079 844.38 130.306 841.429 125.192 838.955C124.809 838.768 124.405 839.193 124.56 839.504C124.798 839.969 124.995 840.456 125.212 840.932C125.181 840.953 125.14 840.953 125.109 840.974C124.995 841.046 125.109 841.191 125.233 841.16C125.254 841.16 125.285 841.16 125.306 841.16C128.411 847.869 130.244 854.951 133.226 861.68C126.972 859.061 120.947 855.851 115.273 852.031C109.817 848.469 104.765 844.287 99.9193 839.835C96.2336 836.377 92.7238 832.691 89.3694 828.86C78.1878 811.074 71.717 790.046 71.717 767.538C71.717 766.637 71.7274 765.737 71.7481 764.836V764.67V764.515C71.7481 764.474 71.6135 760.436 72.6074 753.168C73.3736 747.008 74.647 740.858 76.4071 734.884L76.4381 734.78C78.7262 726.332 81.7286 717.77 85.4041 709.115C88.0545 704.425 90.9016 699.869 93.9455 695.438C98.0247 689.599 102.404 683.977 107.104 678.645C111.018 679.069 114.942 679.432 118.897 679.38C127.687 679.245 136.446 677.599 144.676 674.493C149.387 672.713 153.922 670.476 158.156 667.753C158.477 667.546 158.25 667.039 157.918 667.008C157.401 666.966 156.893 666.884 156.386 666.822C156.386 666.79 156.396 666.759 156.386 666.728C156.365 666.604 156.189 666.614 156.169 666.728C156.169 666.749 156.148 666.77 156.148 666.79C146.105 665.621 136.394 662.204 126.175 662.535C125.088 662.566 124.001 662.649 122.914 662.753C127.604 658.539 132.501 654.553 137.584 650.815C152.131 639.996 167.971 630.916 184.526 623.276C188.605 623.648 192.643 624.394 196.764 624.384C202.178 624.363 207.604 623.4 212.739 621.526C215.679 620.449 218.516 619.093 221.187 617.416C221.384 617.292 221.26 616.971 221.063 616.95C220.752 616.919 220.431 616.867 220.121 616.826C220.121 616.805 220.121 616.784 220.121 616.764C220.121 616.691 220.007 616.691 219.986 616.764C219.986 616.774 219.976 616.784 219.965 616.805C215.317 616.204 210.813 614.796 206.175 614.206C213.619 611.38 221.156 608.771 228.776 606.359C240.392 625.833 253.914 647.73 267.839 669.296C282.168 691.483 292.366 713.515 298.143 734.78L298.174 734.884C298.888 737.307 299.499 739.76 300.048 742.235C300.566 747.567 300.659 752.909 300.317 758.199C300.214 756.75 300.069 755.301 299.944 753.841C299.83 751.998 299.478 750.186 299.189 748.364C297.936 741.096 295.855 733.962 292.914 727.222C289.964 720.493 286.433 714.043 282.354 707.976C278.234 701.95 273.72 696.204 268.709 690.955C268.315 690.53 267.911 690.137 267.508 689.723C267.249 688.346 266.917 687.073 266.524 685.944C263.532 679.597 258.945 674.027 253.261 670.083C246.853 665.641 239.253 663.881 232.348 660.496C232.348 660.475 232.348 660.465 232.348 660.444C232.389 660.361 232.275 660.278 232.213 660.351C232.193 660.371 232.193 660.392 232.182 660.423C231.83 660.247 231.468 660.092 231.126 659.906C230.898 659.792 230.557 660.03 230.671 660.299C232.286 663.85 234.284 667.205 236.582 670.331C240.599 675.787 245.548 680.509 251.129 684.225C254.39 686.4 257.9 688.077 261.378 689.826C262.631 691.255 263.863 692.705 265.075 694.154C269.516 699.621 273.761 705.232 277.436 711.196C281.164 717.107 284.508 723.257 287.189 729.655L289.146 734.48L290.813 739.408C291.382 741.044 291.755 742.742 292.231 744.398C292.438 745.237 292.728 746.065 292.873 746.914L293.391 749.451C293.453 749.73 293.505 750.02 293.567 750.3C290.678 744.326 286.816 738.839 282.147 734.118C279.341 731.281 276.256 728.724 272.912 726.539C272.663 726.373 272.363 726.705 272.446 726.953C272.581 727.336 272.684 727.73 272.808 728.123C272.788 728.134 272.757 728.123 272.736 728.144C272.653 728.196 272.715 728.32 272.808 728.299C272.829 728.299 272.839 728.299 272.86 728.299C275.262 735.95 275.925 744.078 279.455 751.366C282.592 757.827 287.541 763.376 293.484 767.393C294.043 767.693 294.633 767.963 295.265 768.232L295.234 770.106L295.203 772.715C295.151 773.584 295.047 774.444 294.964 775.313C294.778 777.042 294.664 778.792 294.447 780.521C293.846 783.958 293.411 787.458 292.438 790.854C292.376 791.154 292.293 791.454 292.231 791.754C292.2 791.837 292.169 791.92 292.128 792.003C290.119 796.745 287.8 801.341 285.181 805.773C285.315 800.534 285.419 795.274 285.998 790.067C286.03 790.067 286.05 790.046 286.081 790.056C286.237 790.067 286.299 789.849 286.154 789.787C286.112 789.767 286.071 789.787 286.03 789.766C286.102 789.104 286.154 788.441 286.247 787.789C286.309 787.365 285.729 786.94 285.377 787.282C280.729 791.806 276.618 796.848 273.026 802.253C266.752 811.684 262.145 822.203 259.453 833.209C259.08 834.731 258.769 836.263 258.48 837.806C258.304 837.961 258.127 838.127 257.951 838.282C253.096 842.506 247.961 846.399 242.567 849.888C237.193 853.408 231.551 856.514 225.732 859.206C214.095 864.59 201.65 868.213 188.947 869.58C185.769 869.901 182.59 870.097 179.391 870.149C176.171 870.191 172.941 870.118 169.731 869.942C166.159 869.714 162.588 869.362 159.047 868.845C158.891 868.596 158.757 868.348 158.602 868.11C153.642 860.459 147.141 853.543 139.438 847.734L139.489 847.703Z" fill="#FFF2F2"/>
<path d="M162.815 906.189C163.167 904.294 164.203 902.783 165.983 901.571C169.938 898.89 174.307 898.382 178.48 898.382C179.805 898.382 181.12 898.434 182.393 898.486C185.396 898.6 187.994 898.703 190.21 898.061C193.937 896.974 196.184 894.748 197.727 893.009C199.704 892.843 201.661 892.647 203.618 892.388C204.021 892.75 204.394 893.123 204.777 893.496C204.322 894.044 203.762 894.676 203.286 895.214C200.76 898.061 197.613 901.602 196.733 905.63C196.256 907.794 196.194 910.32 196.132 912.991C196.07 915.662 195.956 920.135 195.066 921.128C193.295 923.096 189.413 923.21 186.617 922.702C186.172 922.619 185.686 922.578 185.158 922.547C184.35 922.216 183.46 922.195 182.642 922.464C182.621 922.464 182.59 922.464 182.569 922.464C177.393 922.392 169.566 922.278 165.476 916.438C164.762 915.414 162.039 910.382 162.815 906.189Z" fill="#FFF2F2"/>
<path d="M187.301 883.091C179.836 883.091 172.537 882.366 165.455 881.01C164.72 879.457 163.985 877.904 163.229 876.351C165.228 876.641 167.226 876.889 169.234 877.076C172.63 877.376 176.026 877.572 179.432 877.635C182.859 877.666 186.297 877.552 189.723 877.283C203.421 876.164 216.818 872.385 229.242 866.681C239.119 862.125 248.395 856.338 256.854 849.557C256.409 853.335 255.974 857.114 255.353 860.873C236.251 874.839 212.728 883.091 187.301 883.091Z" fill="#FFF2F2"/>
<path d="M242.546 901.603C236.034 896.788 228.672 893.103 222.367 890.452C235.267 891.167 245.528 894.211 252.102 899.294C255.922 902.245 260.768 908.322 266.555 917.36C261.327 914.286 251.957 908.55 242.546 901.603Z" fill="#FFF2F2"/>
<path d="M254.421 919.679C244.637 916.977 236.054 912.691 228.931 906.903C225.96 904.491 223.392 901.737 220.814 898.807C226.25 901.188 232.306 904.325 237.618 908.259C243.602 912.68 249.503 916.583 254.411 919.679H254.421Z" fill="#FFF2F2"/>
<path d="M307.979 803.537C309.956 796.921 311.405 790.088 312.275 783.078C317.835 786.495 324.668 789.653 332.423 790.781C324.968 793.867 317.348 796.351 310.494 801.507C309.645 802.149 308.807 802.833 307.989 803.537H307.979Z" fill="#FFF2F2"/>
<path d="M314.087 774.371C317.151 771.296 320.195 768.18 322.918 764.618C328.405 766.938 335.446 770.085 343.656 775.148C348.439 778.098 354.03 780.5 359.434 782.819C361.256 783.596 363.047 784.372 364.797 785.159C357.415 784.072 348.304 783.347 337.195 782.933C328.209 782.592 320.164 778.461 314.097 774.371H314.087Z" fill="#FFF2F2"/>
<path d="M362.695 775.21C357.571 773.005 352.27 770.737 348.004 768.097C340.084 763.21 333.064 759.949 327.65 757.63C327.805 757.371 327.95 757.112 328.105 756.864C354.672 755.466 368.742 769.474 372.51 773.936C373.266 774.827 373.949 775.821 374.612 776.846V780.718C370.833 778.72 366.754 776.949 362.695 775.21Z" fill="#FFF2F2"/>
<path d="M335.311 747.443C337.961 744.45 340.312 742.721 343.449 742.721C344.826 742.721 346.234 742.732 347.673 742.753C348.863 742.763 350.075 742.773 351.296 742.784C350.168 743.612 349.143 744.45 348.335 745.279C346.203 747.453 339.991 747.846 336.264 747.432C335.943 747.401 335.632 747.412 335.321 747.432L335.311 747.443Z" fill="#FFF2F2"/>
<path d="M353.357 751.884C353.657 751.635 353.947 751.376 354.226 751.097C357.074 748.208 364.725 744.336 368.742 742.473C370.553 743.228 372.521 743.932 374.602 744.419V764.245C370.243 760.28 363.234 755.186 353.357 751.884Z" fill="#FFF2F2"/>
<path d="M374.602 730.856C366.795 734.677 357.136 734.583 347.756 734.48C346.296 734.459 344.857 734.449 343.449 734.449C341.067 734.449 338.966 734.956 337.081 735.774C338.583 730.556 339.711 725.121 340.343 719.509C340.394 719.043 339.846 718.743 339.608 719.002C339.225 719.406 338.821 719.758 338.438 720.151C338.407 720.12 338.396 720.079 338.365 720.047C338.251 719.944 338.148 720.11 338.231 720.234C338.251 720.255 338.251 720.286 338.262 720.317C330.631 727.843 321.458 732.927 314.884 742.017C314.563 742.462 314.263 742.949 313.952 743.404C312.327 741.53 313.072 739.481 318.839 732.606C321.386 729.572 324.005 726.446 325.32 723.112C326.469 720.803 327.743 718.194 327.743 715.223V699.993C329.006 691.421 331.17 687.828 335.415 687.248C351.721 686.006 364.393 688.501 373.049 694.651C373.535 694.993 374.063 695.21 374.602 695.324V730.856Z" fill="#FFF2F2"/>
<path d="M359.641 667.816C356.432 671.294 353.44 675.063 350.406 678.925C345.53 678.531 340.281 678.552 334.669 678.987C334.607 678.987 334.535 678.997 334.472 679.008C334.214 679.039 333.965 679.08 333.717 679.132C334.524 674.783 335.197 669.71 334.928 665.642C334.69 662.039 334.969 656.5 335.456 651.126C338.003 648.559 342.082 645.039 344.743 644.179C348.512 642.968 356.049 643.237 358.399 643.672C358.834 644.334 359.776 646.322 361.267 652.193C362.882 658.55 359.859 666.987 359.828 667.07C359.734 667.319 359.672 667.567 359.631 667.816H359.641Z" fill="#FFF2F2"/>
<path d="M323.788 543.338C325.879 539.455 328.012 535.169 330.435 530.686C331.542 537.685 332.888 544.653 334.545 551.299L323.788 543.338Z" fill="#FFF2F2"/>
<path d="M319.056 469.364C319.481 473.319 322.225 476.446 325.786 477.564C325.993 484.563 326.397 493.021 327.132 502.194C326.583 502.619 326.045 503.033 325.527 503.458C304.148 520.944 302.823 523.274 302.823 523.274C302.823 523.274 297.749 516.989 304.945 483.714C306.187 477.989 307.492 472.915 308.817 468.422H319.025C319.025 468.733 319.025 469.043 319.056 469.354V469.364Z" fill="#FFF2F2"/>
<path d="M287.251 486.768C287.251 486.768 287.251 486.768 287.241 486.768C278.958 482.637 269.04 480.369 259.256 480.276C260.55 479.22 261.813 478.112 263.014 476.922C265.178 474.758 266.255 471.693 266.307 468.443H297.563C293.618 474.292 289.953 480.545 287.262 486.778L287.251 486.768Z" fill="#FFF2F2"/>
<path d="M209.229 475.721C206.672 475.928 204.332 476.549 202.303 477.522C201.837 474.447 201.205 471.414 200.553 468.432H212.521C211.248 470.927 210.161 473.402 209.239 475.721H209.229Z" fill="#FFF2F2"/>
<path d="M163.55 473.723C161.055 481.281 158.053 489.781 154.833 498.125C146.871 493.301 139.955 483.444 135.39 475.638C137.429 473.868 138.692 471.269 138.713 468.443H163.312C163.271 470.234 163.343 471.994 163.54 473.733L163.55 473.723Z" fill="#FFF2F2"/>
<path d="M119.425 469.364C119.974 474.499 124.457 478.257 129.55 477.988C134.603 486.757 142.709 498.415 152.524 503.975C149.967 510.342 147.317 516.44 144.728 521.741C144.532 521.265 144.324 520.613 144.2 520.188C143.579 518.159 142.544 514.773 138.92 513.572C138.496 513.427 138.061 513.355 137.616 513.355C131.072 513.355 125.161 515.105 119.435 516.792C117.282 517.434 115.045 518.086 112.799 518.656C112.644 518.697 112.499 518.739 112.354 518.801C108.368 520.292 105.055 522.756 102.228 525.717C104.64 517.268 108.502 510.063 111.65 505.124C112.644 505.466 113.71 505.662 114.818 505.662C120.16 505.662 124.498 501.335 124.498 495.982C124.498 490.63 120.17 486.302 114.818 486.302C109.465 486.302 105.137 490.63 105.137 495.982C105.137 497.929 105.717 499.73 106.701 501.252C102.984 506.988 98.2525 515.726 95.6538 526.162C94.2665 515.954 91.7817 505.507 88.1477 494.74L94.0077 475.41C94.0077 475.41 94.0491 475.41 94.0698 475.41C98.4699 475.41 102.176 472.47 103.357 468.443H119.383C119.383 468.753 119.383 469.064 119.415 469.374L119.425 469.364Z" fill="#FFF2F2"/>
<path d="M88.1372 473.35L84.5964 485.018C82.4637 479.582 80.0513 474.054 77.3595 468.432H84.8035C85.3833 470.399 86.5532 472.118 88.1372 473.35Z" fill="#FFF2F2"/>
<path d="M84.5344 503.934C79.7408 497.68 73.3943 490.464 65.4844 482.295C62.4612 479.169 59.4484 476.156 56.5909 473.35C57.8437 472.004 58.7237 470.317 59.055 468.422H70.4747C76.5313 480.711 81.2006 492.504 84.5344 503.923V503.934Z" fill="#FFF2F2"/>
<path d="M19.2053 615.863C32.8716 623.089 40.8747 626.817 43.2249 627.893C46.8796 631.413 50.4514 634.633 53.6506 637.315C35.9569 630.233 16.6895 626.154 0 635.462V596.523C4.66932 604.029 11.2126 611.639 19.2053 615.873V615.863Z" fill="#FFF2F2"/>
<path d="M0 645.338C20.458 630.192 48.7535 643.371 70.3815 654.108C71.1166 655.278 71.9241 656.437 72.7938 657.586C64.1385 656.686 55.4417 655.474 46.9727 654.294C44.6433 653.973 42.3138 653.642 39.9843 653.321C25.086 651.281 12.1858 651.685 0.0103533 654.574V645.338H0Z" fill="#FFF2F2"/>
<path d="M2.46405 732.689C9.72169 746.097 11.6163 763.562 11.5646 765.913C11.5335 767.559 7.27832 769.412 -0.010376 769.07V728.496C0.921418 729.976 1.74968 731.385 2.4537 732.689H2.46405Z" fill="#FFF2F2"/>
<path d="M24.237 783.534C25.2516 783.658 27.6432 786.453 33.6585 788.741C34.5074 797.169 34.466 805.638 37.0233 813.931C33.0269 815.028 30.0348 818.631 29.9106 823C29.776 827.763 33.1201 831.811 37.6341 832.732L42.2724 847.714C29.9623 833.602 25.0238 819.17 23.0981 811.208C26.3283 809.717 28.6164 806.497 28.7199 802.698C28.8649 797.355 24.6511 792.903 19.3088 792.758C13.9665 792.613 9.51465 796.827 9.3697 802.17C9.24546 806.839 12.4446 810.825 16.8137 811.85C17.4867 814.863 18.5634 818.776 20.2717 823.27L5.82889 817.099C5.83924 816.944 5.85995 816.788 5.8703 816.623C5.98419 812.543 3.54082 808.982 0 807.47V784.807C13.5835 787.789 23.2948 783.42 24.237 783.534Z" fill="#FFF2F2"/>
<path d="M0 876.931C2.46408 876.382 4.58649 874.891 5.95313 872.841C17.994 876.475 35.9362 879.229 52.2736 881.186C46.5586 884.136 38.6073 887.729 29.6414 890.359C27.9538 887.874 25.1377 886.197 21.8971 886.104C16.5549 885.959 12.103 890.172 11.958 895.515C11.8338 900.153 14.9915 904.118 19.3295 905.174C12.7759 908.052 6.30514 911.334 0 915.041V876.92V876.931Z" fill="#FFF2F2"/>
<path d="M65.7017 912.587C79.3473 909.626 93.376 907.359 105.417 905.692C87.5471 916.811 70.3711 923.251 55.5452 924.348C54.2925 924.442 52.8844 924.493 51.3832 924.493C42.9246 924.493 31.1426 923.054 16.2235 920.217C27.581 919.099 46.2066 916.822 65.6914 912.587H65.7017Z" fill="#FFF2F2"/>
<path d="M119.818 926.73C123.877 922.154 127.293 917.112 130.741 912.09C132.687 913.064 134.748 913.85 136.829 914.347C137.408 914.482 137.999 914.617 138.589 914.741C137.533 915.207 136.611 915.797 135.897 916.594C132.242 920.642 131.797 925.632 134.644 930.643C136.011 933.045 135.731 934.484 135.503 935.644C135.431 936.037 135.348 936.452 135.317 936.886C135.317 936.907 135.317 936.917 135.317 936.928H109.268C113.037 933.791 116.578 930.385 119.829 926.709L119.818 926.73Z" fill="#FFF2F2"/>
<path d="M199.58 935.478C199.3 932.527 200.449 927.516 201.081 925.177C203.162 922.143 203.276 917.588 203.39 913.156C203.442 910.941 203.504 908.653 203.825 907.162C204.301 904.988 206.848 902.109 208.711 900.008C209.094 899.573 209.467 899.159 209.809 898.765C210.409 899.449 211.02 900.153 211.631 900.857C211.631 900.888 211.631 900.898 211.621 900.929C211.3 902.958 210.823 906.033 212.811 910.392C214.654 914.419 217.46 927.91 217.501 936.948H199.663C199.642 936.431 199.621 935.923 199.569 935.478H199.58Z" fill="#FFF2F2"/>
<path d="M224.738 936.949C224.707 930.095 223.351 921.491 221.798 915.041C225.608 919.358 229.801 924.504 231.872 928.355C233.249 930.913 234.046 933.998 234.47 936.949H224.738Z" fill="#FFF2F2"/>
<path d="M238.249 924.918C237.649 923.8 236.914 922.609 236.075 921.377C241.718 924.307 247.867 926.636 254.494 928.283C261.057 929.918 267.891 930.861 274.838 931.109C275.666 933.066 276.556 935.012 277.457 936.948H241.759C241.262 932.776 240.154 928.448 238.249 924.918Z" fill="#FFF2F2"/>
<path d="M283.897 918.323C289.011 923.406 293.266 925.995 298.112 927.962C307.088 931.606 315.692 931.119 324.337 935.53C325.289 936.016 326.242 936.482 327.204 936.948H285.636C284.301 930.716 283.483 924.431 283.897 918.323Z" fill="#FFF2F2"/>
<path d="M336.698 879.312C332.371 876.692 328.116 876.858 323.726 879.415C321.055 880.968 318.207 882.366 315.278 883.267C308.134 885.451 304.075 883.018 301.104 876.123C299.468 872.313 297.335 868.492 294.571 865.459C294.364 865.231 294.157 865.014 293.95 864.817C299.023 865.469 304.117 865.966 309.293 865.966C310.122 865.966 310.95 865.956 311.778 865.925C328.685 865.386 345.985 860.738 362.737 852.165C366.733 850.115 370.699 847.848 374.612 845.353V903.404C361.205 895.846 349.516 887.046 336.698 879.301V879.312Z" fill="#FFF2F2"/>
<path d="M333.261 818.103C332.495 818.103 331.75 818.124 331.035 818.165C326.625 818.414 322.183 819.232 317.742 820.515C323.198 815.701 328.188 810.017 332.557 803.608C335.176 799.757 337.558 795.657 339.68 791.329C347.973 791.681 357.943 792.313 366.495 793.814C369.829 794.404 372.49 795.046 374.612 795.699V826.479C362.167 822.658 345.043 818.103 333.261 818.103Z" fill="#FFF2F2"/>
<path d="M374.602 685.83C370.305 683.345 365.387 681.503 359.869 680.302C364.497 674.524 369.042 669.389 374.602 665.621V685.83Z" fill="#FFF2F2"/>
<path d="M374.602 621.06C368.845 618.037 360.148 613.585 352.539 609.04C352.653 608.677 352.777 608.315 352.891 607.942C358.854 600.705 367.344 592.174 374.591 587.225V621.06H374.602Z" fill="#FFF2F2"/>
<path d="M356.794 594.339C358.834 586.077 360.221 577.773 360.314 570.309C360.397 563.372 360.977 556.704 361.878 550.379C365.998 545.875 370.502 541.247 374.602 537.323V579.958C368.328 583.374 361.888 589.141 356.794 594.339Z" fill="#FFF2F2"/>
<path d="M363.896 539.155C366.795 525.654 370.957 514.256 374.612 505.88V528.802C371.03 531.96 367.251 535.687 363.896 539.165V539.155Z" fill="#FFF2F2"/>
<path d="M374.602 478.972C362.851 483.04 346.11 489.646 333.095 498.011C332.547 490.402 332.226 483.351 332.039 477.398C335.746 476.021 338.303 472.47 338.345 468.432H374.612V478.972H374.602Z" fill="#FFF2F2"/>
<path d="M0 924.286C12.4446 927.04 35.5117 931.741 51.3936 931.741C53.0398 931.741 54.6135 931.689 56.094 931.586C70.4643 930.519 85.2073 925.198 99.1946 917.691C98.532 918.354 97.8797 919.017 97.2482 919.71C92.4753 924.918 88.8724 930.882 85.4351 936.959H0V924.297V924.286Z" fill="#FFF2F2"/>
<path d="M365.315 0.0297852C359.579 1.01334 354.392 2.42139 350.241 4.50239C343.967 7.63943 337.496 10.6212 331.667 16.7399C329.886 18.6139 327.236 22.9105 325.579 25.6748C342.527 27.352 340.136 34.62 345.426 32.363C353.367 28.9775 364.497 26.617 374.602 25.0329V0.0297852H365.305H365.315Z" fill="#FFF2F2"/>
<path d="M178.035 0.0301287C178.035 0.0301287 178.055 0.123308 178.076 0.154368C180.344 2.06972 182.714 4.3785 185.199 7.16353C185.251 7.16353 185.303 7.15317 185.344 7.14282C186.763 6.88399 188.14 6.75975 189.475 6.75975C190.583 6.75975 191.66 6.85293 192.685 7.01858C192.374 4.92722 192.198 2.70127 192.374 0.806623C192.395 0.558145 192.415 0.299313 192.426 0.0197754H178.045L178.035 0.0301287Z" fill="#FFF2F2"/>
<path d="M146.478 0.0301287C146.085 0.226841 145.712 0.413199 145.391 0.589205C144.356 1.12757 143.662 1.48994 142.885 1.65559C143.072 3.59165 142.927 6.42844 140.939 9.90714C139.448 12.5265 139.956 14.0277 141.198 15.4358C142.005 15.9638 144.998 16.4608 146.623 16.7299C149.253 17.1648 151.53 17.5478 153.197 18.4693C154.212 19.0387 155.9 19.7013 157.463 20.2604C158.488 17.9102 159.523 16.409 159.544 16.3779C163.758 10.3523 170.125 8.3438 175.612 7.66048C171.429 3.70554 167.754 1.39676 164.565 0.0197754H146.478V0.0301287Z" fill="#FFF2F2"/>
<path d="M40.005 468.546C40.8022 464.001 44.7571 460.543 49.53 460.543C49.9545 460.543 50.3686 460.584 50.7724 460.636C57.2535 454.321 64.273 447.156 70.5264 440.147L55.9594 443.729C55.9801 443.957 55.9904 444.185 55.9904 444.423C55.9904 449.765 51.6628 454.103 46.3101 454.103C42.8521 454.103 39.829 452.291 38.1207 449.568C32.1676 456.039 25.5311 462.769 17.8594 468.567H39.9946L40.005 468.546Z" fill="#FFF2F2"/>
<path d="M192.063 468.546C193.409 462.572 194.631 456.888 194.786 451.122C193.658 447.136 194.838 441.98 196.101 436.534C196.722 433.832 197.375 431.036 197.509 429.069C197.685 426.46 196.433 422.971 195.232 419.938C193.378 425.622 192.333 429.421 192.312 429.504L187.322 447.778L185.158 439.847C183.843 441.617 181.959 442.912 179.795 443.471C175.022 451.681 171.44 459.849 171.688 468.546H192.074H192.063Z" fill="#FFF2F2"/>
<path d="M258.003 468.546C257.962 467.376 257.641 466.403 257.165 465.937C254.235 463.017 250.715 460.595 246.998 458.027C245.145 456.743 243.25 455.428 241.407 454.041C240.237 455.687 239.14 456.94 238.405 457.633C236.448 459.476 234.212 459.746 232.741 459.911C232.41 459.953 231.913 460.004 231.706 460.066C228.082 463.452 224.428 464.353 220.845 462.769C220.535 462.634 219.903 462.437 218.671 462.22C219.624 464.311 220.721 466.454 221.984 468.535H258.014L258.003 468.546Z" fill="#FFF2F2"/>
<path d="M367.458 444.64C367.738 442.021 369.042 439.754 370.937 438.201C369.146 434.442 367.147 429.846 365.17 424.524C363.172 426.967 360.024 428.386 356.649 428.023C351.338 427.454 347.487 422.681 348.056 417.37C348.191 416.159 348.543 415.03 349.071 414.005L337.175 403.662C336.543 407.42 335.984 411.21 335.487 414.989C339.276 421.004 343.842 427.102 349.826 432.827C355.003 437.776 361.443 442.963 367.593 447.601C367.406 446.659 367.344 445.665 367.458 444.651V444.64Z" fill="#FFF2F2"/>
<path d="M360.18 409.057C356.846 396.881 354.299 382.542 354.102 366.753C354.061 363.399 353.73 359.827 353.17 356.151C346.306 365.687 341.637 380.492 338.469 396.55L353.543 409.657C355.096 408.922 356.867 408.58 358.709 408.777C359.217 408.829 359.703 408.932 360.18 409.057Z" fill="#FFF2F2"/>
<path d="M336.761 376.309L337.04 376.692C340.664 364.993 345.426 354.867 351.69 348.179C350.458 342.557 348.843 336.842 347.083 331.355C344.888 332.804 342.91 334.233 341.295 335.579C329.793 345.218 322.432 356.834 318.27 363.367C314.108 369.9 307.658 375.263 308.113 378.235C308.538 380.957 314.501 379.632 320.589 388.257L336.75 376.298L336.761 376.309Z" fill="#FFF2F2"/>
<path d="M374.602 295.357C374.467 295.73 374.333 296.102 374.208 296.454C373.028 299.747 372.107 302.356 369.591 303.691C368.141 304.468 366.443 304.613 364.818 304.105C363.182 303.598 361.816 302.511 360.687 301.227C356.608 302.221 348.998 302.221 344.008 301.144C343.77 301.589 343.438 302.19 343.035 302.946C345.478 308.619 348.563 316.229 351.442 324.646C358.751 321.054 368.359 316.705 374.602 314.179V295.346V295.357Z" fill="#FFF2F2"/>
<path d="M374.602 102.786C367.251 101.316 345.975 97.3299 322.68 95.5077C307.564 94.3275 292.687 90.0516 281.557 86.0656C283.348 88.0844 285.077 90.1654 286.734 92.2982C302.802 104.619 318.176 111.493 331.387 112.228C331.967 112.259 332.599 112.28 333.251 112.28C342.227 112.28 356.121 109.34 374.602 103.573V102.796V102.786Z" fill="#FFF2F2"/>
<path d="M366.764 94.5969C364.445 93.2303 362.095 91.9154 359.714 90.6937C343.811 82.5561 327.608 78.1663 311.561 77.659C310.815 77.6383 310.049 77.6279 309.283 77.6279C301.984 77.6279 294.84 78.6736 287.272 79.7711C286.423 79.8953 285.564 80.0195 284.715 80.1334C295.358 83.8917 309.304 87.8362 323.198 88.9233C340.312 90.2589 356.359 92.754 366.754 94.5969H366.764Z" fill="#FFF2F2"/>
<path d="M277.633 68.2784C279.621 63.0189 278.513 57.1797 278.596 51.2887C277.188 52.8727 275.78 54.4568 274.32 56.103C272.819 57.8009 270.065 57.4489 269.05 55.4196C265.592 48.514 265.396 41.4842 266.441 34.3197C263.418 38.2643 260.219 41.8776 257.165 44.2381C251.657 48.5037 244.482 51.5061 235.744 53.2351C248.064 58.391 259.391 65.4416 269.361 74.0245C270.054 74.3351 270.841 74.6767 271.721 75.0598C275.821 74.7078 279.88 74.1694 283.938 73.5793C283.276 73.2169 282.582 72.8028 281.878 72.3058C280.988 71.6846 280.014 71.198 279.114 70.7839C276.97 69.821 272.726 69.6036 272.726 69.6036L277.633 68.2784Z" fill="#FFF2F2"/>
<path d="M155.485 27.8699C151.323 27.6318 144.832 28.1495 138.506 29.6611C137.253 29.9613 136.073 30.3858 134.955 30.8724C135.98 32.2804 137.036 33.6678 138.123 35.024C138.133 35.024 138.175 35.024 138.175 35.024C138.34 35.0344 138.496 35.0655 138.661 35.0965C138.713 35.1069 139.748 35.3346 141.498 35.697C146.271 34.289 151.158 33.1708 155.951 33.2019C155.858 32.8395 155.755 32.4771 155.692 32.1044C155.423 30.6653 155.392 29.2469 155.485 27.8699Z" fill="#FFF2F2"/>
<path d="M83.7683 46.1847C81.5734 46.1847 79.3682 46.133 77.1422 46.0087C61.4674 45.139 45.4716 41.7639 29.7968 36.0178C30.6457 37.3637 31.1841 38.9271 31.2773 40.6147C46.2274 44.963 58.2889 51.7755 62.9168 54.6019C74.7403 53.3699 84.5655 52.6141 88.8932 52.3035L89.0071 52.1689L89.1416 52.2828C89.2969 52.2724 89.4419 52.2621 89.5765 52.2517C100.83 48.5763 113.192 46.0294 126.62 44.611C125.989 44.4143 125.399 44.1969 124.829 43.9588C111.008 44.083 97.6313 46.1951 83.7787 46.1951L83.7683 46.1847Z" fill="#FFF2F2"/>
<path d="M101.524 38.0576C90.001 36.4114 76.9145 34.2372 64.1696 31.4729C47.77 27.9114 32.002 25.7579 20.7998 24.5259C21.9904 25.0539 23.1707 25.5819 24.3717 26.0892C41.9101 33.5229 59.8005 37.7884 77.546 38.772C79.5546 38.8859 81.5942 38.9376 83.7683 38.9376C89.6904 38.9376 95.4986 38.5338 101.524 38.0576Z" fill="#FFF2F2"/>
<path d="M19.4952 98.7793C14.1529 98.9243 9.70101 94.7105 9.55606 89.3682C9.41111 84.0259 13.6249 79.574 18.9672 79.4291C19.5987 79.4084 20.2199 79.4602 20.8204 79.5637L33.2443 64.6861C23.5433 66.2183 14.4324 68.0302 7.55788 70.1319C7.27834 74.4492 4.15166 78.0314 0 78.9425V111.742C1.30451 112.301 2.46408 113.139 3.39587 114.185L23.9264 105.416C28.9891 95.2903 37.1164 83.6118 50.203 73.0722C56.3114 68.1544 63.0307 63.8371 70.3504 60.1306C67.5654 60.3998 64.6043 60.7 61.5191 61.0313L61.4984 61.0624C61.4984 61.0624 61.4673 61.0417 61.457 61.0313C55.4107 61.6836 48.9295 62.4497 42.4587 63.3298L26.3698 82.5972C27.8813 84.2537 28.8338 86.4279 28.896 88.8402C29.0409 94.1825 24.8271 98.6344 19.4848 98.7793H19.4952Z" fill="#FFF2F2"/>
<path d="M7.90989 225.462C8.52073 218.297 12.0512 197.85 12.0512 197.85C12.0512 197.85 7.60965 207.344 0 217.945V273.884C11.7199 276.969 24.2059 277.466 38.8558 275.458C41.1749 275.137 43.5044 274.816 45.8235 274.495C52.1287 273.615 58.5684 272.724 65.0392 271.948C54.8826 269.888 45.3059 266.419 36.9301 261.698C22.9428 253.809 17.1243 240.536 13.2832 228.588L12.8277 227.201C12.5274 226.29 12.2168 225.338 11.9166 224.375C10.0841 234.925 9.39041 244.201 8.32402 244.439C6.57432 244.822 6.98845 236.271 7.90989 225.472V225.462Z" fill="#FFF2F2"/>
<path d="M61.5088 310.669C61.5088 310.669 61.4364 310.669 61.395 310.669C61.2707 310.638 61.3535 310.493 61.4881 310.493C61.5192 310.493 61.5399 310.483 61.571 310.483C62.4717 307.739 63.0825 305.006 63.6623 302.273C52.8742 310.327 30.8114 331.893 23.678 345.187C17.3625 356.948 14.2669 375.977 19.5781 383.856C25.552 392.719 28.4095 395.928 29.7554 397.036C32.3541 395.203 37.7274 388.909 39.4978 385.068C41.9826 379.653 51.8285 363.326 58.2062 356.068C63.6106 349.939 69.0046 336.573 69.0564 336.438C69.1185 336.283 69.2013 336.148 69.2841 336.004C69.2841 335.879 69.2738 335.745 69.2738 335.62C69.2738 335.372 69.2945 335.123 69.3359 334.875C70.8578 326.53 75.5789 320.432 80.1344 314.541C82.4431 311.559 84.6277 308.733 86.3049 305.741C87.92 302.438 87.6094 298.193 87.2781 293.71C87.1228 291.619 86.9572 289.372 87.04 287.126C83.7269 292.22 79.6063 297.158 74.7403 301.807C70.8682 305.503 66.5509 309.013 61.8194 312.222C61.4674 312.46 60.9912 312.222 61.0844 311.953C61.2397 311.528 61.3535 311.104 61.4985 310.669H61.5088Z" fill="#FFF2F2"/>
<path d="M167.733 433.086C167.754 432.868 167.795 432.651 167.837 432.434C164.068 429.721 160.217 427.609 156.458 426.211C159.958 434.608 163.364 443.657 166.336 452.136C167.681 448.554 169.39 445.065 171.295 441.638C168.82 439.639 167.381 436.471 167.744 433.075L167.733 433.086Z" fill="#FFF2F2"/>
<path d="M170.86 426.957C172.837 425.166 175.529 424.193 178.387 424.493C179.319 424.596 180.209 424.835 181.037 425.166C179.091 418.788 175.043 406.364 169.649 394.603C167.764 390.482 164.565 384.322 160.382 376.682C158.736 375.884 156.842 375.066 154.843 374.207C153.539 373.648 152.214 373.079 150.878 372.478C152.048 374.114 153.518 375.667 155.061 377.272C159.016 381.434 163.509 386.144 163.509 393.599C163.509 402.989 156.635 408.052 150.019 411.893C151.096 414.067 152.172 416.366 153.249 418.778C159.948 420.258 165.973 423.489 170.87 426.947L170.86 426.957Z" fill="#FFF2F2"/>
<path d="M191.37 400.101C192.654 396.881 194.041 393.578 195.553 390.296C200.004 380.574 211.445 359.94 226.374 334.761C225.629 333.974 224.904 333.084 224.2 332.09C212.76 329.315 201.475 325.857 190.438 321.664C180.799 317.999 171.336 313.775 162.174 308.94C167.164 314.458 171.284 320.753 174.308 327.555C176.202 331.821 177.683 336.262 178.635 340.828C178.708 341.17 178.232 341.356 177.993 341.159C177.631 340.849 177.248 340.569 176.875 340.269C176.855 340.29 176.844 340.321 176.813 340.342C176.72 340.404 176.616 340.279 176.679 340.197C176.689 340.176 176.689 340.155 176.699 340.145C169.39 334.285 160.817 330.112 154.378 323.176C148.673 317.016 144.728 309.282 142.875 301.092C142.741 299.953 142.699 298.711 142.72 297.407C139.728 295.408 136.777 293.348 133.899 291.195C126.072 285.293 118.628 278.874 111.753 271.855C110.708 271.503 109.683 271.12 108.668 270.716C141.188 321.271 171.15 373.027 179.07 390.317C182.218 397.181 184.899 404.149 187.011 410.154C187.56 408.963 188.191 407.803 188.875 406.664C189.216 405.733 189.568 404.791 189.931 403.828C189.744 402.43 190.283 401.032 191.38 400.121L191.37 400.101Z" fill="#FFF2F2"/>
<path d="M205.771 429.628C205.595 432.258 204.901 435.24 204.177 438.397C203.359 441.938 202.116 447.291 202.789 448.968C202.789 448.968 202.789 448.978 202.789 448.989C204.208 452.467 209.167 452.964 210.14 453.027C217.657 453.524 221.86 454.176 224.179 455.201C224.252 455.232 224.283 455.242 224.283 455.242C224.314 455.242 224.831 455.159 226.095 453.969C228.051 452.126 230.288 451.857 231.768 451.681C232.099 451.639 232.576 451.587 232.793 451.525C233.642 450.594 242.391 440.561 236.8 432.817C232.4 426.719 225.846 424.141 220.576 422.07C217.926 421.025 215.638 420.124 213.867 418.892C210.099 416.252 208.66 413.87 207.604 412.142C207.272 411.593 207.013 411.158 206.744 410.847C205.926 410.195 203.162 408.88 200.139 407.596C200.553 408.963 200.895 410.371 200.998 411.614C201.06 412.245 201.858 414.223 202.437 415.662C204.063 419.72 206.092 424.762 205.761 429.607L205.771 429.628Z" fill="#FFF2F2"/>
<path d="M245.631 445.914C248.24 447.021 250.88 447.632 253.862 448.233C263.615 449.071 273.937 447.301 282.427 443.346C275.076 431.864 259.494 430.384 244.409 428.945C244.316 428.945 244.223 428.924 244.13 428.914C247.795 434.67 247.402 440.768 245.631 445.914Z" fill="#FFF2F2"/>
<path d="M245.196 420.704C257.02 421.832 270.924 423.157 281.091 430.26C276.65 410.868 276.546 394.676 276.546 394.676C276.546 394.676 267.663 397.254 261.43 393.081C253.603 387.842 254.318 383.846 254.318 383.846L248.779 381.372L254.773 381.051C254.773 381.051 259.287 378.038 261.917 376.692C264.547 375.346 270.003 373.679 272.022 372.064C274.041 370.449 282.396 360.003 292.066 355.281C301.736 350.55 309.304 344.752 319.357 330.382C321.075 327.928 322.577 325.702 323.943 323.652C320.91 322.979 317.058 321.84 312.047 320.184C306.395 318.31 300.648 312.657 296.124 305.223C295.865 313.692 294.602 322.058 291.341 331.614C288.349 340.404 279.341 356.286 270.055 360.81C269.661 360.996 269.237 361.162 268.926 361.162C268.698 361.162 268.543 361.079 268.491 360.851C268.408 360.417 265.779 351.254 263.232 340.217C257.32 340.994 251.398 342.122 245.559 341.77C242.018 341.553 238.601 340.849 235.413 339.752C232.017 345.477 228.807 350.954 225.815 356.12C225.846 356.161 225.877 356.192 225.908 356.234C230.412 363.264 235.423 372.582 234.191 382.428C234.077 383.318 233.642 384.146 232.948 384.726C227.016 389.81 220.411 388.857 215.11 388.081C212.739 387.739 210.482 387.408 208.391 387.563C207.8 388.712 207.231 389.82 206.734 390.835C210.078 391.383 213.412 392.015 216.704 392.957C226.157 395.649 235.237 400.07 243.426 406.002C248.116 409.398 252.506 413.26 256.471 417.598C256.771 417.929 256.419 418.436 256.057 418.374C255.498 418.281 254.928 418.219 254.359 418.136C254.359 418.177 254.359 418.209 254.349 418.25C254.297 418.385 254.111 418.322 254.121 418.177C254.121 418.146 254.111 418.126 254.111 418.095C245.082 416.811 235.972 417.297 226.985 415.724C228.942 416.552 231.023 417.525 233.114 418.737C233.383 418.809 233.642 418.892 233.922 418.964C235.495 419.42 237.659 420.041 238.663 420.041C238.819 420.041 238.964 420.041 239.119 420.062C241.086 420.279 243.115 420.476 245.186 420.673L245.196 420.704Z" fill="#FFF2F2"/>
<path d="M326.676 270.809C327.101 264.235 324.357 253.551 323.705 251.107C320.744 246.5 319.926 240.806 319.502 237.886C319.471 237.689 319.46 237.493 319.46 237.296V221.766C319.46 220.669 318.632 219.012 317.824 217.407C317.762 217.283 317.7 217.149 317.648 217.014C316.862 214.923 314.646 212.272 312.492 209.705C311.219 208.183 309.78 206.474 308.496 204.621C307.751 207.085 307.005 209.736 306.394 211.93C305.028 216.807 303.62 221.859 302.16 225.659C298.723 234.646 293.681 267.186 296.186 282.229C298.598 296.755 307.927 310.1 314.656 312.326C323.074 315.121 326.987 315.96 328.809 316.136C328.944 315.919 329.089 315.691 329.223 315.484C329.896 312.254 330.114 305.772 329.348 302.449C328.116 297.107 326.097 279.682 326.676 270.82V270.809Z" fill="#FFF2F2"/>
<path d="M302.564 160.857C300.918 138.639 292.966 118.161 280.501 101.181C281.381 103.438 282.147 105.737 282.768 108.087C283.597 111.234 284.135 114.413 284.487 117.601C285.988 119.869 287.438 122.167 288.784 124.517C290.471 127.468 292.024 130.502 293.453 133.587C294.882 136.672 296.207 139.809 297.304 143.019C299.396 148.982 300.959 155.122 301.963 161.344C302.16 161.178 302.367 161.013 302.585 160.847L302.564 160.857Z" fill="#FFF2F2"/>
<path d="M321.044 344.493C322.639 346.212 335.518 333.063 345.447 327.721C345.571 327.659 345.695 327.586 345.82 327.524C343.625 321.054 341.285 315.018 339.214 309.965C338.8 310.721 338.365 311.487 337.941 312.264C337.609 317.306 336.409 322.368 333.158 323.787C332.485 324.077 331.729 324.273 330.849 324.367C330.517 324.874 330.217 325.319 329.948 325.681C326.314 330.682 319.44 342.775 321.044 344.493Z" fill="#FFF2F2"/>
<path d="M276.691 342.433C279.569 338.033 282.085 333.095 283.493 328.943C288.08 315.484 288.421 304.882 287.438 290.035C287.117 285.128 286.237 280.355 285.17 275.479C283.472 283.461 282.199 292.562 282.416 301.445C282.82 318.289 279.3 333.56 276.681 342.433H276.691Z" fill="#FFF2F2"/>
<path d="M275.863 279.952C270.386 290.843 266.338 301.673 266.773 311.229C266.928 314.738 267.653 321.675 270.344 334.047C272.415 325.609 274.444 313.993 274.144 301.642C273.968 294.26 274.703 286.826 275.873 279.941L275.863 279.952Z" fill="#FFF2F2"/>
<path d="M259.494 300.233C253.013 310.617 246.78 320.795 240.983 330.454C241.48 330.454 241.976 330.454 242.473 330.485C248.975 330.786 255.249 332.08 260.933 334.337C261.306 334.482 261.658 334.647 262.031 334.803C260.281 326.634 258.79 318.061 258.5 311.601C258.335 307.895 258.718 304.085 259.505 300.233H259.494Z" fill="#FFF2F2"/>
<path d="M221.736 363.274C218.092 369.662 214.882 375.439 212.19 380.44C213.536 380.564 214.861 380.75 216.176 380.937C220.928 381.63 224.179 381.972 227.14 380.077C227.358 374.249 224.697 368.316 221.746 363.274H221.736Z" fill="#FFF2F2"/>
<path d="M144.459 359.485C146.934 361.411 150.247 363.098 153.653 364.641C151.831 361.431 149.905 358.077 147.865 354.567C146.985 355.944 146.085 357.3 145.194 358.636C145.039 358.864 144.873 359.071 144.677 359.268C144.604 359.34 144.521 359.412 144.449 359.485H144.459Z" fill="#FFF2F2"/>
<path d="M155.216 393.609C155.216 389.665 152.876 387.004 149.056 382.987C146.644 380.45 144.149 377.831 142.316 374.342C140.753 371.184 139.231 368.389 137.667 365.79C130.907 370.159 123.287 370.304 116.505 370.439C113.896 370.49 111.432 370.542 109.082 370.801C108.067 370.915 107.053 370.646 106.214 370.056C102.663 367.519 98.5217 365.21 94.2251 363.015C94.2976 364.051 94.37 365.065 94.4322 366.08C94.7013 370.076 94.9602 373.845 95.4468 377.479C95.5193 377.769 95.5607 378.059 95.571 378.369C96.3061 383.328 97.5278 388.05 99.8883 392.791C103.471 399.956 108.067 407.638 115.035 410.361C117.365 410.951 119.611 411.614 121.775 412.255C126.62 413.684 131.217 415.051 135.98 415.31C136.083 414.999 136.197 414.657 136.28 414.378C136.86 412.473 137.75 409.595 140.483 407.773C140.566 407.721 140.639 407.669 140.722 407.628C141.457 407.203 142.223 406.779 142.989 406.354C150.36 402.254 155.195 399.159 155.195 393.62L155.216 393.609Z" fill="#FFF2F2"/>
<path d="M109.745 362.426C111.96 362.25 114.186 362.208 116.34 362.167C122.634 362.043 128.598 361.929 133.443 358.657C133.94 357.891 134.52 357.239 135.11 356.659C135.348 356.348 135.628 356.058 135.959 355.831C136.021 355.789 136.083 355.768 136.145 355.727C136.425 355.489 136.694 355.261 136.963 355.044C137.512 354.588 138.04 354.164 138.547 353.677C140.183 351.213 141.736 348.852 143.124 346.43C134.53 331.801 124.519 315.267 113.876 298.246C114.041 299.312 114.197 300.399 114.321 301.486C114.849 306.156 114.973 310.97 114.611 315.857C114.58 316.229 114.124 316.374 113.969 316.136C113.731 315.774 113.472 315.432 113.234 315.08C113.213 315.101 113.192 315.132 113.161 315.142C113.058 315.204 113.006 315.059 113.089 314.977C113.109 314.956 113.109 314.935 113.12 314.915C108.326 308.019 102 302.76 98.2525 294.819C97.0308 292.231 96.0783 289.445 95.3743 286.516C95.2604 288.255 95.364 290.388 95.5607 293.079C95.9437 298.266 96.3786 304.147 93.7074 309.5C93.6764 309.552 93.6557 309.603 93.6246 309.655C91.6368 313.237 89.1313 316.467 86.719 319.584C82.6605 324.823 78.8298 329.782 77.5874 335.963C77.7116 341.222 80.652 346.047 85.8804 349.608C87.2884 350.312 88.7275 351.016 90.177 351.72C90.9535 351.855 91.6575 352.207 92.2269 352.725C98.2732 355.686 104.423 358.761 109.765 362.395L109.745 362.426Z" fill="#FFF2F2"/>
<path d="M126.03 59.4885C123.618 60.2133 121.216 60.969 118.814 61.7559C113.513 63.5366 108.264 65.452 103.098 67.6158C97.9834 69.7175 93.107 72.2437 88.4066 75.1116C84.4309 77.5446 80.6623 80.2882 77.0594 83.2596C77.1526 83.7669 77.2251 84.2846 77.2354 84.8126C77.3804 90.1549 73.1666 94.6068 67.8243 94.7517C66.965 94.7724 66.1264 94.6689 65.3188 94.4825C64.6562 95.2073 64.004 95.9216 63.3621 96.6671C63.01 97.0812 62.6684 97.516 62.3164 97.9302C60.9394 104.712 60.1732 111.565 58.0715 118.264C55.2762 127.209 50.8035 135.802 44.9022 143.536C44.2499 144.385 43.5666 145.214 42.8833 146.052C50.845 145.503 55.2969 149.313 55.2969 149.313C55.2969 149.313 57.6263 149.044 60.1318 148.495C61.2086 148.257 62.306 148.112 63.1964 148.03C69.75 109.971 93.4486 77.7103 126.02 59.4885H126.03Z" fill="#FFF2F2"/>
<path d="M99.9091 93.9137C103.926 89.555 108.264 85.4655 112.965 81.7797C120.398 75.9508 128.691 71.1262 137.512 67.5233C138.351 66.2912 139.251 65.1006 140.204 63.941C124.664 70.9088 110.925 81.1999 99.9091 93.9241V93.9137Z" fill="#FFF2F2"/>
<path d="M67.3067 75.4019C67.7933 75.3915 68.2695 75.4226 68.7458 75.4847L80.0826 62.4396C70.4644 66.5809 61.8401 71.685 54.2408 77.7935C53.3505 78.5078 52.4911 79.2222 51.6525 79.9469L43.8876 105.054C44.5605 105.395 45.1921 105.809 45.7719 106.286C48.1428 103.169 50.8346 100.239 53.806 97.5785C55.3693 96.4293 57.2122 95.3112 59.2518 94.2344C59.4071 94.0377 59.5624 93.8203 59.7177 93.6236C60.1215 93.1163 60.546 92.6193 60.9497 92.112C59.1379 90.4037 57.9784 88.0121 57.9059 85.3203C57.7609 79.978 61.9747 75.5261 67.317 75.3812L67.3067 75.4019Z" fill="#FFF2F2"/>
<path d="M62.3474 185.178C61.4156 178.407 61.25 174.628 61.426 172.402H61.4053C61.3846 171.429 61.3742 170.455 61.3742 169.472C61.3742 164.575 61.6641 159.74 62.2128 154.988C61.4467 156.416 60.5667 157.824 59.6038 158.963C56.2701 162.846 48.8882 164.119 48.8882 164.119C48.8882 164.119 57.2743 166.459 59.2414 176.512C61.2086 186.565 56.5703 192.839 53.0398 201.753C50.7414 207.551 49.6026 218.091 49.0952 224.748C57.5539 226.114 66.5923 227.119 74.233 227.947C71.127 220.234 68.5283 212.583 66.4784 205.004C64.5734 198.513 63.186 191.824 62.3681 185.188L62.3474 185.178Z" fill="#FFF2F2"/>
<path d="M74.1087 236.25C62.2231 234.956 46.745 233.268 34.8387 230.338C38.3589 232.243 42.1171 233.921 45.9581 235.639C52.1597 238.404 58.5788 241.271 64.3248 245.216C65.8157 246.21 67.0581 247.183 68.1555 248.032C69.3255 248.943 70.3401 249.74 71.1269 250.134C73.9223 251.532 76.5831 253.033 79.1611 254.482C82.8261 256.542 86.3462 258.52 89.9077 260.021C85.4144 252.204 81.4181 244.408 77.929 236.664C76.6866 236.53 75.4235 236.385 74.0983 236.24L74.1087 236.25Z" fill="#FFF2F2"/>
<path d="M72.9181 348.003C70.6611 352.548 67.6276 357.932 64.4388 361.556C61.809 364.548 58.3096 369.579 55.1105 374.59C55.5867 378.545 56.7981 384.478 58.5788 387.076C61.1361 390.804 68.0728 395.711 70.3091 396.809C71.0649 396.581 73.1976 395.577 78.7263 391.249C83.4163 387.584 86.2945 380.637 87.2056 378.162C86.7086 374.373 86.4498 370.542 86.191 366.639C86.015 364.061 85.839 361.411 85.5801 358.729C84.3481 358.129 83.1264 357.528 81.9358 356.928C81.7805 356.855 81.6355 356.762 81.4906 356.669C77.8773 354.257 74.9887 351.296 72.9284 347.993L72.9181 348.003Z" fill="#FFF2F2"/>
<path d="M85.2281 402.389C79.1818 405.598 75.9826 408.735 73.8291 408.363C72.535 408.145 71.8103 406.861 71.5825 404.998C70.8163 405.143 70.102 405.174 69.3876 405.112C67.5965 404.946 64.2317 403.02 60.8462 400.505C58.9412 412.1 56.0733 423.965 49.3126 435.219C50.9381 435.747 52.3668 436.7 53.485 437.932L77.4114 432.051C83.8097 424.141 88.448 416.987 89.1623 412.245C89.9906 406.82 90.4875 401.467 90.6635 396.187C89.328 398.724 87.5265 401.157 85.2074 402.389H85.2281Z" fill="#FFF2F2"/>
<path d="M53.4746 394.023C53.4746 394.023 53.4953 393.961 53.4953 393.94C52.8223 393.195 52.2322 392.47 51.7663 391.787C51.4143 392.305 51.0519 392.843 50.7103 393.412C49.8095 394.893 49.4886 396.632 49.1676 398.309C48.7328 400.649 48.1841 403.569 45.4819 405.008C43.7736 405.919 41.8065 405.847 40.1085 404.842C36.9197 410.04 34.1865 415.33 32.0226 420.579C26.9495 432.869 18.5323 450.045 9.0177 464.695C18.7084 458.172 26.846 449.682 34.0001 441.793C47.6664 427.236 51.1141 410.216 53.4643 394.023H53.4746Z" fill="#FFF2F2"/>
<path d="M24.3716 417.422C25.997 413.487 27.902 409.533 30.0659 405.619C29.4654 405.681 28.8856 405.66 28.3162 405.515C25.9039 404.915 23.388 402.865 19.7333 398.279C12.8173 404.315 7.58894 410.64 3.86177 417.525C2.86785 420.248 1.85323 422.205 0.931793 423.913C0.569429 425.156 0.269185 426.398 0 427.64V463.287C9.54571 449.206 18.7187 431.129 24.3716 417.432V417.422Z" fill="#FFF2F2"/>
<path d="M14.826 391.58C14.153 390.607 13.4593 389.593 12.7139 388.495C9.07991 383.111 7.9307 374.353 9.02814 364.879C8.71755 365.014 8.40695 365.138 8.086 365.262C5.49768 366.298 2.62983 367.281 -0.0102539 367.519V407.938C3.89293 402.161 8.80037 396.757 14.8156 391.58H14.826Z" fill="#FFF2F2"/>
<path d="M11.0056 354.836C12.2894 350.167 14.0909 345.539 16.3789 341.273C18.7705 336.822 22.5288 331.676 26.9185 326.427C25.6865 327.069 24.4131 327.731 23.0671 328.446C10.8813 334.885 2.07072 352.455 0.476318 359.091C2.9611 358.491 7.10241 356.834 10.9952 354.836H11.0056Z" fill="#FFF2F2"/>
<path d="M82.6087 265.767C80.0411 264.483 77.5563 263.086 75.1026 261.709C72.6178 260.311 70.0398 258.861 67.4308 257.547C65.8985 256.78 64.5215 255.704 63.0617 254.565C62.0368 253.757 60.9704 252.929 59.6866 252.08C54.5099 248.529 48.4533 245.816 42.583 243.207C36.0811 240.308 29.4758 237.358 23.709 233.175C27.1049 241.582 32.0123 249.43 40.9782 254.482C52.8534 261.181 67.4205 265.104 82.5983 265.777L82.6087 265.767Z" fill="#FFF2F2"/>
<path d="M17.2486 212.345C17.2486 212.345 17.29 212.407 17.321 212.438C17.4142 212.552 17.497 212.665 17.5799 212.79C17.642 212.893 17.7041 212.997 17.7559 213.1C17.7766 213.152 17.8076 213.193 17.8387 213.245C19.7851 217.387 26.8667 219.416 30.273 220.389C30.3454 220.41 30.4179 220.43 30.5007 220.461C35.2632 222.128 41.4545 223.454 48.0599 224.551C47.3041 219.002 45.7511 210.512 42.7176 202.447C37.6134 188.894 30.097 184.536 30.097 184.536C30.097 184.536 23.6572 189.868 17.2382 204.662C16.3892 206.619 15.6438 208.752 14.9812 210.968C15.8716 211.164 16.6791 211.64 17.2693 212.345H17.2486Z" fill="#FFF2F2"/>
<path d="M92.2684 57.8839L74.7092 78.0935C78.0637 75.2464 81.6045 72.6166 85.311 70.2147C90.1874 67.0259 95.4054 64.3133 100.758 62.0563C106.038 59.7993 111.422 57.7701 116.847 55.8961C124.063 53.4838 131.414 51.4649 138.848 49.8291C121.62 50.7712 106.08 53.4631 92.2684 57.8839Z" fill="#FFF2F2"/>
<path d="M139.49 89.2752C135.079 92.5986 130.306 95.5493 125.192 98.0237C124.809 98.2101 124.405 97.7856 124.56 97.475C124.798 97.0091 124.995 96.5225 125.212 96.0463C125.181 96.0255 125.14 96.0255 125.109 96.0048C124.995 95.9324 125.109 95.7874 125.233 95.8185C125.254 95.8185 125.285 95.8185 125.306 95.8185C128.412 89.1096 130.244 82.0279 133.226 75.2983C126.973 77.9177 120.947 81.1272 115.273 84.9476C109.817 88.5091 104.765 92.6918 99.9194 97.1437C96.2337 100.602 92.7239 104.287 89.3695 108.118C78.188 125.905 71.7172 146.933 71.7172 169.441C71.7172 170.341 71.7275 171.242 71.7482 172.143V172.308V172.464C71.7482 172.505 71.6136 176.543 72.6075 183.811C73.3737 189.971 74.6471 196.121 76.4072 202.095L76.4383 202.198C78.7263 210.647 81.7288 219.209 85.4042 227.864C88.0546 232.554 90.9018 237.109 93.9456 241.541C98.0248 247.38 102.404 253.002 107.105 258.334C111.018 257.909 114.942 257.547 118.897 257.599C127.687 257.733 136.446 259.379 144.677 262.485C149.387 264.266 153.922 266.502 158.157 269.225C158.477 269.432 158.25 269.94 157.918 269.971C157.401 270.012 156.893 270.095 156.386 270.157C156.386 270.188 156.396 270.219 156.386 270.25C156.365 270.374 156.189 270.364 156.169 270.25C156.169 270.23 156.148 270.209 156.148 270.188C146.105 271.358 136.394 274.775 126.175 274.443C125.088 274.412 124.001 274.329 122.914 274.226C127.604 278.44 132.501 282.426 137.585 286.163C152.131 296.982 167.971 306.062 184.526 313.703C188.605 313.33 192.643 312.585 196.764 312.595C202.179 312.616 207.604 313.579 212.739 315.453C215.679 316.529 218.516 317.886 221.187 319.563C221.384 319.687 221.26 320.008 221.063 320.029C220.752 320.06 220.431 320.112 220.121 320.153C220.121 320.174 220.121 320.194 220.121 320.215C220.121 320.288 220.007 320.288 219.986 320.215C219.986 320.205 219.976 320.194 219.965 320.174C215.317 320.774 210.813 322.182 206.175 322.772C213.619 325.599 221.156 328.208 228.776 330.62C240.392 311.146 253.914 289.248 267.839 267.683C282.168 245.496 292.366 223.464 298.143 202.198L298.174 202.095C298.888 199.672 299.499 197.218 300.048 194.744C300.566 189.412 300.659 184.07 300.317 178.779C300.214 180.229 300.069 181.678 299.944 183.138C299.831 184.981 299.479 186.793 299.189 188.615C297.936 195.883 295.855 203.016 292.915 209.756C289.964 216.486 286.433 222.936 282.354 229.003C278.234 235.028 273.72 240.774 268.709 246.024C268.315 246.448 267.911 246.841 267.508 247.256C267.249 248.633 266.918 249.906 266.524 251.035C263.532 257.381 258.946 262.951 253.262 266.896C246.853 271.337 239.254 273.097 232.348 276.483C232.348 276.504 232.348 276.514 232.348 276.535C232.389 276.617 232.276 276.7 232.213 276.628C232.193 276.607 232.193 276.586 232.182 276.555C231.83 276.731 231.468 276.887 231.126 277.073C230.899 277.187 230.557 276.949 230.671 276.68C232.286 273.128 234.284 269.774 236.582 266.647C240.6 261.191 245.548 256.47 251.129 252.753C254.39 250.579 257.9 248.902 261.379 247.152C262.631 245.723 263.863 244.274 265.075 242.824C269.516 237.358 273.761 231.746 277.436 225.783C281.164 219.871 284.508 213.721 287.189 207.323L289.146 202.498L290.813 197.57C291.382 195.935 291.755 194.237 292.231 192.58C292.438 191.741 292.728 190.913 292.873 190.064L293.391 187.528C293.453 187.248 293.505 186.958 293.567 186.679C290.678 192.653 286.816 198.14 282.147 202.861C279.341 205.698 276.256 208.255 272.912 210.439C272.664 210.605 272.363 210.274 272.446 210.025C272.581 209.642 272.684 209.249 272.809 208.855C272.788 208.845 272.757 208.855 272.736 208.835C272.653 208.783 272.715 208.659 272.809 208.679C272.829 208.679 272.84 208.679 272.86 208.679C275.262 201.028 275.925 192.901 279.455 185.612C282.592 179.152 287.541 173.603 293.484 169.585C294.043 169.285 294.633 169.016 295.265 168.747L295.234 166.873L295.203 164.264C295.151 163.394 295.047 162.535 294.965 161.665C294.778 159.936 294.664 158.187 294.447 156.458C293.846 153.02 293.412 149.521 292.438 146.125C292.376 145.825 292.293 145.524 292.231 145.224C292.2 145.141 292.169 145.059 292.128 144.976C290.119 140.234 287.8 135.637 285.181 131.206C285.315 136.445 285.419 141.704 285.999 146.912C286.03 146.912 286.05 146.933 286.081 146.922C286.237 146.912 286.299 147.129 286.154 147.191C286.112 147.212 286.071 147.191 286.03 147.212C286.102 147.875 286.154 148.537 286.247 149.19C286.309 149.614 285.729 150.039 285.377 149.697C280.729 145.172 276.619 140.13 273.026 134.726C266.752 125.294 262.145 114.775 259.453 103.77C259.08 102.248 258.77 100.716 258.48 99.1729C258.304 99.0176 258.128 98.852 257.952 98.6967C253.096 94.4726 247.961 90.5797 242.567 87.0907C237.193 83.5706 231.551 80.4646 225.732 77.7727C214.095 72.3891 201.651 68.7654 188.947 67.3988C185.769 67.0778 182.59 66.8811 179.391 66.8294C176.171 66.7879 172.941 66.8604 169.731 67.0364C166.16 67.2642 162.588 67.6162 159.047 68.1339C158.892 68.3823 158.757 68.6308 158.602 68.8689C153.643 76.52 147.141 83.436 139.438 89.2442L139.49 89.2752Z" fill="#FFF2F2"/>
<path d="M162.815 30.7897C163.167 32.6844 164.203 34.1959 165.984 35.4073C169.938 38.0888 174.308 38.5961 178.48 38.5961C179.805 38.5961 181.12 38.5443 182.393 38.4926C185.396 38.3787 187.995 38.2751 190.21 38.917C193.937 40.0041 196.184 42.2301 197.727 43.9694C199.704 44.1351 201.661 44.3318 203.618 44.5906C204.021 44.2283 204.394 43.8555 204.777 43.4828C204.322 42.9341 203.763 42.3026 203.286 41.7642C200.76 38.917 197.613 35.3762 196.733 31.3488C196.256 29.185 196.194 26.6588 196.132 23.9876C196.07 21.3165 195.956 16.8439 195.066 15.85C193.295 13.8829 189.413 13.769 186.618 14.2763C186.172 14.3591 185.686 14.4005 185.158 14.4316C184.35 14.7629 183.46 14.7836 182.642 14.5144C182.621 14.5144 182.59 14.5144 182.569 14.5144C177.393 14.5869 169.566 14.7008 165.476 20.54C164.762 21.565 162.039 26.5967 162.815 30.7897Z" fill="#FFF2F2"/>
<path d="M187.301 53.8978C179.836 53.8978 172.537 54.6226 165.456 55.9788C164.72 57.5318 163.985 59.0848 163.23 60.6378C165.228 60.3479 167.226 60.0994 169.235 59.9131C172.63 59.6128 176.026 59.4161 179.432 59.354C182.859 59.3229 186.297 59.4368 189.724 59.706C203.421 60.8242 216.818 64.6031 229.242 70.3077C239.119 74.8632 248.396 80.6507 256.854 87.432C256.409 83.6531 255.974 79.8742 255.353 76.1159C236.251 62.1494 212.729 53.8978 187.301 53.8978Z" fill="#FFF2F2"/>
<path d="M242.546 35.3759C236.034 40.1902 228.673 43.876 222.367 46.5264C235.268 45.812 245.528 42.7682 252.102 37.6847C255.922 34.734 260.768 28.6567 266.555 19.6183C261.327 22.6932 251.957 28.4289 242.546 35.3759Z" fill="#FFF2F2"/>
<path d="M254.421 17.299C244.637 20.0012 236.054 24.2874 228.931 30.0749C225.96 32.4872 223.392 35.2412 220.814 38.1711C226.25 35.7899 232.307 32.6528 237.618 28.7186C243.602 24.2978 249.503 20.3946 254.411 17.299H254.421Z" fill="#FFF2F2"/>
<path d="M307.979 133.452C309.956 140.068 311.405 146.901 312.275 153.91C317.835 150.494 324.668 147.336 332.423 146.208C324.968 143.122 317.348 140.638 310.494 135.482C309.645 134.84 308.807 134.156 307.989 133.452H307.979Z" fill="#FFF2F2"/>
<path d="M314.087 162.607C317.151 165.682 320.195 168.799 322.918 172.36C328.405 170.041 335.446 166.894 343.656 161.831C348.439 158.88 354.03 156.478 359.434 154.159C361.256 153.383 363.047 152.606 364.797 151.819C357.415 152.906 348.304 153.631 337.195 154.045C328.209 154.387 320.164 158.518 314.097 162.607H314.087Z" fill="#FFF2F2"/>
<path d="M362.696 161.769C357.571 163.974 352.27 166.242 348.004 168.882C340.084 173.768 333.065 177.03 327.65 179.349C327.805 179.608 327.95 179.866 328.105 180.115C354.672 181.513 368.742 167.505 372.51 163.042C373.266 162.152 373.95 161.158 374.612 160.133V156.261C370.833 158.259 366.754 160.03 362.696 161.769Z" fill="#FFF2F2"/>
<path d="M335.311 189.536C337.961 192.528 340.312 194.257 343.449 194.257C344.826 194.257 346.234 194.247 347.673 194.226C348.863 194.216 350.075 194.205 351.296 194.195C350.168 193.367 349.143 192.528 348.335 191.7C346.203 189.525 339.991 189.132 336.264 189.546C335.943 189.577 335.632 189.567 335.321 189.546L335.311 189.536Z" fill="#FFF2F2"/>
<path d="M353.357 185.105C353.657 185.353 353.947 185.612 354.227 185.892C357.074 188.78 364.725 192.652 368.742 194.516C370.554 193.76 372.521 193.056 374.602 192.57V172.743C370.243 176.708 363.234 181.802 353.357 185.105Z" fill="#FFF2F2"/>
<path d="M374.602 206.122C366.795 202.302 357.136 202.395 347.756 202.499C346.296 202.519 344.857 202.53 343.449 202.53C341.068 202.53 338.966 202.022 337.081 201.205C338.583 206.423 339.711 211.858 340.343 217.47C340.395 217.935 339.846 218.236 339.608 217.977C339.225 217.573 338.821 217.221 338.438 216.828C338.407 216.859 338.396 216.9 338.365 216.931C338.251 217.035 338.148 216.869 338.231 216.745C338.251 216.724 338.251 216.693 338.262 216.662C330.631 209.135 321.458 204.052 314.884 194.962C314.563 194.516 314.263 194.03 313.952 193.574C312.327 195.448 313.072 197.498 318.839 204.373C321.386 207.406 324.005 210.533 325.32 213.867C326.469 216.175 327.743 218.784 327.743 221.756V236.985C329.006 245.558 331.17 249.151 335.415 249.73C351.721 250.973 364.393 248.478 373.049 242.328C373.535 241.986 374.063 241.769 374.602 241.655V206.122Z" fill="#FFF2F2"/>
<path d="M359.641 269.163C356.432 265.684 353.44 261.915 350.406 258.053C345.53 258.447 340.281 258.426 334.669 257.991C334.607 257.991 334.535 257.981 334.473 257.971C334.214 257.94 333.965 257.898 333.717 257.846C334.524 262.195 335.197 267.268 334.928 271.337C334.69 274.94 334.97 280.479 335.456 285.852C338.003 288.42 342.082 291.94 344.743 292.799C348.512 294.01 356.049 293.741 358.399 293.306C358.834 292.644 359.776 290.656 361.267 284.786C362.882 278.429 359.859 269.991 359.828 269.908C359.735 269.66 359.672 269.411 359.631 269.163H359.641Z" fill="#FFF2F2"/>
<path d="M323.788 393.64C325.879 397.523 328.012 401.809 330.435 406.292C331.543 399.293 332.888 392.325 334.545 385.678L323.788 393.64Z" fill="#FFF2F2"/>
<path d="M319.057 467.614C319.481 463.659 322.225 460.533 325.786 459.414C325.993 452.416 326.397 443.957 327.132 434.784C326.583 434.36 326.045 433.945 325.527 433.521C304.148 416.034 302.823 413.705 302.823 413.705C302.823 413.705 297.75 419.989 304.945 453.265C306.187 458.99 307.492 464.063 308.817 468.556H319.026C319.026 468.246 319.026 467.935 319.057 467.625V467.614Z" fill="#FFF2F2"/>
<path d="M287.251 450.221C287.251 450.221 287.251 450.221 287.241 450.221C278.958 454.352 269.04 456.619 259.256 456.713C260.55 457.769 261.813 458.876 263.014 460.067C265.178 462.231 266.255 465.295 266.307 468.546H297.563C293.619 462.697 289.954 456.443 287.262 450.211L287.251 450.221Z" fill="#FFF2F2"/>
<path d="M209.229 461.257C206.672 461.05 204.332 460.429 202.303 459.456C201.837 462.531 201.205 465.564 200.553 468.546H212.521C211.248 466.051 210.161 463.576 209.239 461.257H209.229Z" fill="#FFF2F2"/>
<path d="M163.551 463.255C161.055 455.697 158.053 447.197 154.833 438.853C146.871 443.677 139.955 453.534 135.39 461.34C137.429 463.11 138.692 465.709 138.713 468.535H163.312C163.271 466.744 163.343 464.984 163.54 463.245L163.551 463.255Z" fill="#FFF2F2"/>
<path d="M119.425 467.614C119.974 462.479 124.457 458.72 129.55 458.99C134.603 450.22 142.709 438.563 152.524 433.003C149.967 426.636 147.317 420.538 144.728 415.237C144.532 415.713 144.324 416.365 144.2 416.79C143.579 418.819 142.544 422.205 138.92 423.405C138.496 423.55 138.061 423.623 137.616 423.623C131.072 423.623 125.161 421.873 119.435 420.186C117.282 419.544 115.045 418.891 112.799 418.322C112.644 418.281 112.499 418.239 112.354 418.177C108.368 416.686 105.055 414.222 102.228 411.261C104.64 419.709 108.502 426.915 111.65 431.854C112.644 431.512 113.71 431.315 114.818 431.315C120.16 431.315 124.498 435.643 124.498 440.996C124.498 446.348 120.17 450.676 114.818 450.676C109.465 450.676 105.137 446.348 105.137 440.996C105.137 439.049 105.717 437.248 106.701 435.726C102.984 429.99 98.2525 421.252 95.6538 410.816C94.2665 421.024 91.7817 431.471 88.1477 442.238L94.0077 461.568C94.0077 461.568 94.0491 461.568 94.0698 461.568C98.4699 461.568 102.176 464.508 103.357 468.535H119.383C119.383 468.225 119.383 467.914 119.415 467.604L119.425 467.614Z" fill="#FFF2F2"/>
<path d="M88.1374 463.628L84.5965 451.96C82.4638 457.395 80.0515 462.924 77.3596 468.546H84.8036C85.3834 466.579 86.5533 464.86 88.1374 463.628Z" fill="#FFF2F2"/>
<path d="M84.5344 433.045C79.7408 439.298 73.3943 446.515 65.4844 454.683C62.4612 457.81 59.4484 460.823 56.5909 463.628C57.8437 464.974 58.7237 466.662 59.055 468.557H70.4747C76.5313 456.267 81.2006 444.475 84.5344 433.055V433.045Z" fill="#FFF2F2"/>
<path d="M19.2053 321.126C32.8716 313.899 40.8747 310.172 43.2249 309.096C46.8796 305.575 50.4514 302.356 53.6506 299.674C35.9569 306.756 16.6895 310.835 0 301.527V340.466C4.66932 332.96 11.2126 325.35 19.2053 321.116V321.126Z" fill="#FFF2F2"/>
<path d="M0 291.64C20.458 306.787 48.7535 293.607 70.3815 282.871C71.1166 281.701 71.9241 280.541 72.7938 279.392C64.1385 280.293 55.4417 281.504 46.9727 282.684C44.6433 283.005 42.3138 283.337 39.9843 283.658C25.086 285.697 12.1858 285.293 0.0103533 282.405V291.64H0Z" fill="#FFF2F2"/>
<path d="M2.46418 204.289C9.72181 190.882 11.6165 173.416 11.5647 171.066C11.5336 169.419 7.27844 167.566 -0.0102539 167.908V208.482C0.92154 207.002 1.7498 205.594 2.45382 204.289H2.46418Z" fill="#FFF2F2"/>
<path d="M24.237 153.445C25.2516 153.321 27.6432 150.525 33.6585 148.237C34.5074 139.81 34.466 131.341 37.0233 123.048C33.0269 121.95 30.0348 118.347 29.9106 113.978C29.776 109.216 33.1201 105.168 37.6341 104.246L42.2724 89.2651C29.9623 103.377 25.0238 117.809 23.0981 125.771C26.3283 127.262 28.6164 130.481 28.7199 134.281C28.8649 139.623 24.6511 144.075 19.3088 144.22C13.9665 144.365 9.51465 140.151 9.3697 134.809C9.24546 130.14 12.4446 126.154 16.8137 125.129C17.4867 122.116 18.5634 118.203 20.2717 113.709L5.82889 119.88C5.83924 120.035 5.85995 120.19 5.8703 120.356C5.98419 124.435 3.54082 127.997 0 129.508V152.172C13.5835 149.19 23.2948 153.559 24.237 153.445Z" fill="#FFF2F2"/>
<path d="M0 60.0476C2.46408 60.5963 4.58649 62.0872 5.95313 64.1371C17.994 60.5032 35.9362 57.7492 52.2736 55.7924C46.5586 52.8417 38.6073 49.2492 29.6414 46.6194C27.9538 49.1042 25.1377 50.7814 21.8971 50.8746C16.5549 51.0196 12.103 46.8058 11.958 41.4635C11.8338 36.8252 14.9915 32.8599 19.3295 31.8039C12.7759 28.9257 6.30514 25.6437 0 21.9373V60.058V60.0476Z" fill="#FFF2F2"/>
<path d="M65.7019 24.3912C79.3475 27.3523 93.3761 29.6196 105.417 31.2865C87.5473 20.1671 70.3712 13.7274 55.5453 12.6299C54.2926 12.5368 52.8845 12.485 51.3833 12.485C42.9247 12.485 31.1427 13.9241 16.2236 16.7609C27.5812 17.879 46.2067 20.1568 65.6915 24.3912H65.7019Z" fill="#FFF2F2"/>
<path d="M119.818 10.2486C123.877 14.8248 127.293 19.8668 130.741 24.8881C132.688 23.9149 134.748 23.1281 136.829 22.6311C137.409 22.4965 137.999 22.3619 138.589 22.2377C137.533 21.7718 136.611 21.1817 135.897 20.3845C132.242 16.3363 131.797 11.3461 134.644 6.33509C136.011 3.93313 135.731 2.49403 135.504 1.33446C135.431 0.94104 135.348 0.526909 135.317 0.0920722C135.317 0.0713657 135.317 0.0610124 135.317 0.0506592H109.268C113.037 3.1877 116.578 6.59392 119.829 10.2693L119.818 10.2486Z" fill="#FFF2F2"/>
<path d="M199.58 1.49995C199.3 4.45063 200.45 9.46161 201.081 11.8014C203.162 14.8349 203.276 19.3904 203.39 23.8216C203.442 26.0372 203.504 28.3252 203.825 29.8161C204.301 31.9903 206.848 34.8685 208.711 36.9702C209.095 37.4051 209.467 37.8192 209.809 38.2126C210.409 37.5293 211.02 36.8253 211.631 36.1213C211.631 36.0902 211.631 36.0798 211.621 36.0488C211.3 34.0195 210.824 30.9446 212.811 26.5859C214.654 22.5585 217.46 9.06818 217.501 0.0297852H199.663C199.642 0.547448 199.621 1.05476 199.57 1.49995H199.58Z" fill="#FFF2F2"/>
<path d="M224.738 0.0297852C224.707 6.88364 223.351 15.4872 221.798 21.9373C225.608 17.62 229.801 12.4744 231.872 8.62299C233.249 6.06574 234.046 2.98046 234.47 0.0297852H224.738Z" fill="#FFF2F2"/>
<path d="M238.249 12.0603C237.649 13.1784 236.914 14.3691 236.075 15.6011C241.718 12.6711 247.868 10.3416 254.494 8.69546C261.058 7.05965 267.891 6.1175 274.838 5.86902C275.666 3.91226 276.556 1.96585 277.457 0.0297852H241.759C241.262 4.20215 240.154 8.52981 238.249 12.0603Z" fill="#FFF2F2"/>
<path d="M283.897 18.6553C289.011 13.5718 293.267 10.9835 298.112 9.01642C307.088 5.37207 315.692 5.85867 324.337 1.44818C325.289 0.961579 326.242 0.495682 327.205 0.0297852H285.636C284.301 6.26245 283.483 12.5469 283.897 18.6553Z" fill="#FFF2F2"/>
<path d="M336.699 57.6665C332.371 60.2859 328.116 60.1202 323.726 57.563C321.055 56.01 318.208 54.6123 315.278 53.7116C308.134 51.527 304.075 53.96 301.104 60.8553C299.468 64.6653 297.335 68.4857 294.571 71.5192C294.364 71.7469 294.157 71.9644 293.95 72.1611C299.023 71.5088 304.117 71.0119 309.293 71.0119C310.122 71.0119 310.95 71.0222 311.778 71.0533C328.685 71.5916 345.985 76.2403 362.737 84.8128C366.733 86.8627 370.699 89.1301 374.612 91.6252V33.5745C361.205 41.1323 349.516 49.9326 336.699 57.6769V57.6665Z" fill="#FFF2F2"/>
<path d="M333.261 118.875C332.495 118.875 331.75 118.854 331.035 118.813C326.625 118.564 322.183 117.746 317.742 116.463C323.198 121.277 328.188 126.961 332.557 133.369C335.177 137.221 337.558 141.321 339.68 145.648C347.973 145.296 357.943 144.665 366.495 143.164C369.829 142.573 372.49 141.932 374.612 141.279V110.499C362.168 114.319 345.043 118.875 333.261 118.875Z" fill="#FFF2F2"/>
<path d="M374.602 251.148C370.305 253.633 365.387 255.476 359.869 256.677C364.497 262.454 369.042 267.589 374.602 271.358V251.148Z" fill="#FFF2F2"/>
<path d="M374.602 315.918C368.845 318.941 360.149 323.393 352.539 327.938C352.653 328.301 352.777 328.663 352.891 329.036C358.854 336.273 367.344 344.804 374.591 349.753V315.918H374.602Z" fill="#FFF2F2"/>
<path d="M356.794 342.65C358.834 350.912 360.221 359.215 360.314 366.68C360.397 373.617 360.977 380.284 361.878 386.61C365.998 391.114 370.502 395.742 374.602 399.666V357.031C368.328 353.614 361.888 347.847 356.794 342.65Z" fill="#FFF2F2"/>
<path d="M363.896 397.823C366.795 411.324 370.957 422.723 374.612 431.098V408.176C371.03 405.019 367.251 401.291 363.896 397.813V397.823Z" fill="#FFF2F2"/>
<path d="M374.602 458.007C362.851 453.938 346.11 447.333 333.096 438.967C332.547 446.577 332.226 453.627 332.04 459.581C335.746 460.957 338.303 464.509 338.345 468.546H374.612V458.007H374.602Z" fill="#FFF2F2"/>
<path d="M0 12.6923C12.4446 9.93832 35.5117 5.23794 51.3936 5.23794C53.0398 5.23794 54.6135 5.28971 56.094 5.39324C70.4643 6.45963 85.2073 11.7812 99.1946 19.2873C98.532 18.6247 97.8797 17.9621 97.2482 17.2684C92.4753 12.0607 88.8724 6.09726 85.4351 0.0198975H0V12.6819V12.6923Z" fill="#FFF2F2"/>
</g>
<defs>
<clipPath id="clip0_16_2">
<rect width="381" height="936.97" fill="white" transform="translate(0 0.0297852)"/>
</clipPath>
</defs>
</svg>
